<svg xmlns="http://www.w3.org/2000/svg" xmlns:xlink="http://www.w3.org/1999/xlink" viewBox="0 0 1060.72 985.33"><defs><style>.cls-1{opacity:0.43;}.cls-2{fill:#aec9b9;}.cls-3{fill:#dee9e1;}.cls-4{fill:#57362b;}.cls-5{fill:#8d594a;}.cls-6{fill:#d0740f;}.cls-7{fill:#f4a101;}.cls-8{fill:#fbc001;}.cls-9{fill:#fac98d;}.cls-10{fill:#007a8a;}.cls-11{fill:#343b3d;}.cls-12{fill:#af6522;}.cls-13{fill:#3f4549;}.cls-14{fill:#003f52;}.cls-15{fill:#eeaa68;}.cls-16{fill:url(#linear-gradient);}.cls-17{fill:#a56052;}.cls-18{fill:url(#linear-gradient-2);}.cls-19{fill:#64361a;}.cls-20{fill:#974d1e;}.cls-21{fill:url(#linear-gradient-3);}.cls-22{fill:#f3a19c;}.cls-23{fill:#46271e;}.cls-24{fill:#5d6365;}.cls-25{fill:#e50057;}.cls-26{fill:#804b29;}.cls-27{fill:#a8134b;}.cls-28{fill:#ee756d;}.cls-29{fill:url(#linear-gradient-4);}.cls-30{fill:url(#linear-gradient-5);}.cls-31{fill:url(#linear-gradient-6);}.cls-32{fill:#e31c76;}.cls-33{fill:#fbca8e;}.cls-34{fill:#8d344c;}.cls-35{fill:#e09d5e;}.cls-36{fill:#cd697d;}.cls-37{fill:#3e221d;}.cls-38{fill:#eb95af;}.cls-39{fill:#021b40;}.cls-40{fill:#e0005f;}.cls-41{fill:#fff;}.cls-42{fill:#fdc300;}.cls-43{fill:#fffbde;}.cls-44{fill:#f8c8e0;}.cls-45{fill:#f093a2;}.cls-46{fill:#ef767d;}.cls-47{fill:#263238;}.cls-48{fill:#93ae80;}.cls-49{fill:#9ebb89;}.cls-50{fill:#3e535d;}.cls-51{fill:#455a64;}</style><linearGradient id="linear-gradient" x1="-535.24" y1="684.8" x2="-550.55" y2="694.32" gradientTransform="matrix(-0.92, 0.38, 0.38, 0.92, 0.41, -126.68)" gradientUnits="userSpaceOnUse"><stop offset="0" stop-color="#d28178"/><stop offset="1" stop-color="#f6b9ad" stop-opacity="0"/></linearGradient><linearGradient id="linear-gradient-2" x1="908.18" y1="160.6" x2="915.22" y2="184.45" gradientTransform="translate(-94.44 -119.75) rotate(14.55)" gradientUnits="userSpaceOnUse"><stop offset="0" stop-color="#d99b68"/><stop offset="1" stop-color="#d99b68" stop-opacity="0"/></linearGradient><linearGradient id="linear-gradient-3" x1="625.13" y1="234.09" x2="632.16" y2="257.94" gradientTransform="matrix(-0.97, 0.25, 0.25, 0.97, 1344.58, -119.75)" xlink:href="#linear-gradient-2"/><linearGradient id="linear-gradient-4" x1="578.98" y1="234.58" x2="569.73" y2="240.33" gradientTransform="translate(-56.39 -126.68) rotate(22.55)" xlink:href="#linear-gradient"/><linearGradient id="linear-gradient-5" x1="1792.1" y1="-58.2" x2="1799.29" y2="-33.83" gradientTransform="translate(-1400.56 -119.75) rotate(14.55)" xlink:href="#linear-gradient-2"/><linearGradient id="linear-gradient-6" x1="1031.6" y1="139.25" x2="1038.78" y2="163.62" gradientTransform="matrix(-0.97, 0.25, 0.25, 0.97, 1359.98, -119.75)" xlink:href="#linear-gradient-2"/></defs><g id="Layer_2" data-name="Layer 2"><g id="Layer_1-2" data-name="Layer 1"><g class="cls-1"><path class="cls-2" d="M984.45,329.76C840,203.84,894.87,157.12,803.47,54.55c-87.32-98-260.76-42.72-320.87,1.71C367.23,141.54,323,301.55,202.48,379.34,150.36,413,75.19,431.89,59,491.77c-22.23,82.07,21.41,144.8,143.4,193.88,80.58,32.42,223.16,44,310,41,150.71-5.2,323.8-51,447.58-109.19C1068.54,566.41,1107.64,437.16,984.45,329.76Z"/><path class="cls-2" d="M341.14,108.91c-42.5,57.31-24.84,101.54,49.57,19.27S401.91,27,341.14,108.91Z"/><path class="cls-2" d="M460.62,39.07A15.66,15.66,0,1,1,445,23.42,15.66,15.66,0,0,1,460.62,39.07Z"/><path class="cls-2" d="M877,112.17c-2.84,53,42.46,136.69,68.18,119.54,18.24-12.16-11-46.74-16.34-76.76-8.51-48-4.94-69.54-23.18-74.48C893.2,77.11,878.24,88.29,877,112.17Z"/><path class="cls-2" d="M967.73,258.37a12.85,12.85,0,1,1-12.85-12.85A12.85,12.85,0,0,1,967.73,258.37Z"/><path class="cls-2" d="M136.44,340.78c-69.91,35.72-48,73.46,37.75,32.65S230.31,292.83,136.44,340.78Z"/><path class="cls-2" d="M82.36,407.1a8.16,8.16,0,1,1-8.16-8.16A8.16,8.16,0,0,1,82.36,407.1Z"/><ellipse class="cls-2" cx="34.41" cy="605.04" rx="29.59" ry="46.93" transform="translate(-287.38 91.51) rotate(-28.82)"/></g><ellipse class="cls-3" cx="548.84" cy="937.08" rx="482.59" ry="48.25"/><polygon class="cls-4" points="871.52 879.02 877.46 906.16 866.37 906.16 854.91 879.02 871.52 879.02"/><polygon class="cls-4" points="245.92 879.02 239.98 906.16 251.07 906.16 262.53 879.02 245.92 879.02"/><polygon class="cls-5" points="229.21 880.2 888.23 880.2 888.23 848.63 235.32 848.63 229.21 880.2"/><path class="cls-6" d="M161.72,832.41c2.27,8.23,10.21,22.29,26.07,22.29H923.66c18.49,0,28.71-13.43,28.71-22.29Z"/><polygon class="cls-7" points="161.72 832.41 952.37 832.41 921.14 790.52 196.76 785.41 161.72 832.41"/><path class="cls-8" d="M966.77,573.81c5.61-53.9-32.9-89.24-89.31-89.24H255.39c-73.8,0-99.8,43.61-104,89.24S133.23,671,229.21,685.05s633.45,17.27,682.61,0S962.84,611.54,966.77,573.81Z"/><path class="cls-7" d="M189.28,597.86c3.07-54.22,19.26-85.52,63.52-85.52H865.92c36.7,0,77.72,22.08,64.77,85.52S918,667.78,876.31,677.49s-611.12,0-637.48,0-46.14-8.63-49.55-25.91S189.28,597.86,189.28,597.86Z"/><path class="cls-6" d="M99.07,603c2.67-16.79,14.51-24,35.93-27.64,14.79-2.5,45.15-2.77,57.13,5.52s17.5,59,26.72,94.91c-10.14,18.42-19.35,106-19.35,106l-37.78,50.68S82.48,739.35,99.07,603Z"/><path class="cls-6" d="M1015,603c-2.67-16.79-14.52-24-35.93-27.64-14.8-2.5-45.15-2.77-57.13,5.52s-17.51,59-26.72,94.91c10.13,18.42,19.35,106,19.35,106l37.78,50.68S1031.6,739.35,1015,603Z"/><path class="cls-7" d="M138.48,574.84c-1.23.16-2.4.32-3.48.51C113.58,579,101.74,586.2,99.07,603c-16.59,136.36,62.65,229.42,62.65,229.42l26.05-34.94C161,766.44,127.65,651.59,138.48,574.84Z"/><path class="cls-7" d="M1015,603c-2.64-16.59-14.28-23.84-35.21-27.5,6.38,68.45-26.42,190.24-53.5,222l26.06,34.95S1031.6,739.35,1015,603Z"/><path class="cls-8" d="M137.87,597.33c10.92-1.15,42.5-9.64,57-13.63a12.94,12.94,0,0,0-2.71-2.83c-12-8.29-42.34-8-57.13-5.52-18.29,3.08-29.54,8.87-34.11,20.93C112.39,598.17,130.19,598.14,137.87,597.33Z"/><path class="cls-8" d="M1013.2,596.28c-4.58-12.06-15.83-17.85-34.11-20.93-14.8-2.5-45.15-2.77-57.13,5.52a13,13,0,0,0-2.72,2.83c14.48,4,46,12.48,57,13.63C983.9,598.14,1001.7,598.17,1013.2,596.28Z"/><polygon class="cls-5" points="198.73 854.7 176.19 957.61 196.53 957.61 239.98 854.7 198.73 854.7"/><polygon class="cls-5" points="918.71 854.7 941.25 957.61 920.91 957.61 877.46 854.7 918.71 854.7"/><path class="cls-8" d="M191.86,692c-7.07,6.42-12.07,9.59-14.91,21s2.84,45.58,8.54,61.73,17.1,18,33.24,18h698c16.14,0,22.79-19.94,23.74-38.94s1.34-39.49-.72-48.18-8.68-16.23-14.85-19.88-66.31-24.22-103.37-24.22H254.79C242.08,661.51,223.65,665.32,191.86,692Z"/><ellipse class="cls-7" cx="762.74" cy="681.66" rx="117.27" ry="16.66"/><path class="cls-7" d="M177.33,711.69c-.13.43-.27.81-.38,1.27-2.85,11.4,2.84,45.58,8.54,61.73s17.1,18,33.24,18h698c16.14,0,22.79-19.94,23.74-38.94.77-15.47,1.15-31.83.16-42.1Z"/><path class="cls-9" d="M702.89,436.59s-51.27,34.35-73,45.87S627,536.25,661.3,518.7s69-45.36,69-45.36Z"/><path class="cls-10" d="M701.56,501.69c21.06-9.31,33.88-14.2,60.74-41.85,15.83-16.3,17.21-33.58,12.37-45.14s-18.48-21.85-35.5-11.55c-15.53,9.39-31.9,21.66-72,51.27C675.66,469.65,691.41,496.38,701.56,501.69Z"/><path class="cls-11" d="M831.5,942.26c-5.51-9.13-5.88-18-6.88-24l-47.71-5.78s-3,15.45-4.78,24.42c-1.43,7.4-1.89,12.07,9,26,8.16,10.66,38.37,5.95,64,5.83,8.58,0,11.78-2.6,11.7-4.54C856.33,949.77,835.64,949.1,831.5,942.26Z"/><path class="cls-12" d="M724.42,298.17c-20.41-29.35-29.63-96.51,13.73-124.83,41.36-27,102.3-17.1,124.09,26s-1.66,107.08-1.66,107.08Z"/><path class="cls-13" d="M789,688.09c-63.49,0-87.35-38.84-87.35-71.65v-1H874.43v1C874.44,667.48,872.46,688.09,789,688.09Z"/><path class="cls-14" d="M797,383.16c-9.69,0-30.06,3.36-37.32,7.45-24,13.48-47.39,53.38-51.26,117.69C705,565,701.69,615.45,701.69,615.45s86.52,29.87,174.58,0c-.11-16.15-2-66-4.63-103C865.58,427.53,849.49,383.16,797,383.16Z"/><path class="cls-15" d="M816,401.15l-4.32-75.89-43.32,2.06-6.22,74.14C774.88,407.62,802.1,407.74,816,401.15Z"/><path class="cls-10" d="M763.47,385.53c.26,3.19,3.47,16.89,16.43,20.11-13.69,5.64-15.67,17.57-15.67,17.57s-8.6-14.58-6.48-31C758.62,387.34,763.47,385.53,763.47,385.53Z"/><path class="cls-10" d="M815.05,383.86c-1,6.91-22.22,17.72-35.15,21.78,6.88,5.2,11.86,19.19,11.86,19.19s26.51-14.21,28.79-32.65C820.68,388.46,815.05,383.86,815.05,383.86Z"/><path class="cls-9" d="M721.15,312.77c6.05,39.47,34.19,66,73.9,62.46,36.13-3.18,61.11-53.68,62.12-99.73s-23.66-82.5-67.28-81.83C723.09,194.71,708.42,229.58,721.15,312.77Z"/><path class="cls-9" d="M835.87,295.41c-4.59,11.47-4.61,20.34,2.88,23.78s23.79-.77,28.38-12.24,2.25-23.56-5.23-27S840.46,283.93,835.87,295.41Z"/><path class="cls-16" d="M775.25,293.37c-9.74-.57-17.5,2.11-18.28,9.38s9.39,10.21,17.38,10S782.82,293.8,775.25,293.37Z"/><path class="cls-17" d="M779.6,294.11c-5.68-.15-11.67.18-16.74,2.87-2.94,1.53-5.92,4.61-4.38,8,2.61,5.11,8.82,6.88,13.86,8.86-5.84-.81-12.66-2.36-15.73-8-2.21-4.39,1.45-8.95,5.32-10.67,5.48-2.62,12-2.56,17.67-1.06Z"/><path class="cls-18" d="M759.81,262.62c1,7.26,5,28.55-15.38,30.25s-15.56-23-15.56-23S750.48,263.57,759.81,262.62Z"/><path class="cls-19" d="M753,290.76a2.78,2.78,0,1,1-2-3.4A2.77,2.77,0,0,1,753,290.76Z"/><path class="cls-20" d="M755.41,261.32C732,263,719.15,272.25,734,272.14S770.84,260.25,755.41,261.32Z"/><path class="cls-21" d="M782.76,262.62c-1,7.26-5,28.55,15.38,30.25s15.57-23,15.57-23S792.09,263.57,782.76,262.62Z"/><path class="cls-19" d="M789.54,290.76a2.78,2.78,0,1,0,2-3.4A2.79,2.79,0,0,0,789.54,290.76Z"/><path class="cls-20" d="M787.17,261.32c23.41,1.63,36.25,10.93,21.37,10.82S771.73,260.25,787.17,261.32Z"/><path class="cls-22" d="M743.83,298.31c0,1.57-4.08,2.84-9.1,2.84s-9.11-1.27-9.11-2.84,4.08-2.85,9.11-2.85S743.83,296.74,743.83,298.31Z"/><path class="cls-22" d="M825,298.31c0,1.57-4.08,2.84-9.11,2.84s-9.1-1.27-9.1-2.84,4.07-2.85,9.1-2.85S825,296.74,825,298.31Z"/><path class="cls-23" d="M812.39,330.63a18.48,18.48,0,0,1-7.92,15.94C797,351.9,787,351.74,778.59,349a81.12,81.12,0,0,0,10.91,0c11.09-.66,20.69-7,22.89-18.36Z"/><path class="cls-12" d="M719.17,239.71c10.76,16.24,98.75,5.35,110.93-1.64,7,28.71,24.9,41.52,24.9,54.87,6.21,1,6.46-21.77,6.46-21.77s-8.55-61.91-28.5-72.79-48.18-20.72-74.6-9.06-42.11,25.18-43.39,36C714.4,230.1,715.15,233.51,719.17,239.71Z"/><path class="cls-11" d="M850.36,702.83c4.08-19,8.69-33.34,10.92-43.92,5.07-24-52.8-44.26-68-9.27-5.74,13.24-13,32.88-14.12,41.92C777.92,702.08,850.36,702.83,850.36,702.83Z"/><path class="cls-13" d="M832.85,911.05l-60.1-3.95,5-211.33A36.76,36.76,0,0,1,816.38,661h0a36.76,36.76,0,0,1,34.73,38.67Z"/><path class="cls-11" d="M650.22,659.22l51.74-41s16.57-2.7,36.81,23.52S753,681.25,753,681.25l-55,29.56Z"/><path class="cls-13" d="M723.06,907.72l-58.64,8.13-30.1-222.54a36.75,36.75,0,0,1,32.89-40.25h0A36.76,36.76,0,0,1,707.46,686Z"/><path class="cls-11" d="M667.86,920.09c1.46,4.4-7.58,17.74-24.31,28.9-10.61,7.07-12.63,13.63-9.09,18.68,8.08,3.28,43.43,5.81,55.58,3.62,11-2,21.4-18.19,30.81-31,6.95-9.5,6.49-13.21.69-27C718.06,905,667.86,920.09,667.86,920.09Z"/><polygon class="cls-24" points="659.14 907.59 726.49 898.47 727.9 916.98 662.54 926.69 659.14 907.59"/><polygon class="cls-24" points="766.8 900.04 837.61 902.49 835.34 921.12 767.43 919.36 766.8 900.04"/><path class="cls-12" d="M710.13,222.65c-1.6-4.49-11.88-24.73-1.92-44,0,6.42,5.78,12.2,5.78,12.2s-9.32-19.27,23.45-37.58c-9,11.24-6.75,18.63-6.75,18.63s2.57-10.28,22.49-12.2c-9,4.49-6.43,12.52-6.43,12.52"/><path class="cls-9" d="M842.81,497.12s14.5,60,17.8,84.37,49.47,21.28,44.86-17-18.69-80.44-18.69-80.44Z"/><path class="cls-10" d="M892.66,483.67c-5.88-22.26-17-48.18-26.47-65.73-10.76-20-28.05-19.84-37-15.22a28.65,28.65,0,0,0-13.51,34.79c5.67,17.24,15.86,37.84,24.19,67.11C864,504.62,885.82,492.86,892.66,483.67Z"/><path class="cls-9" d="M863.83,573.45c-16.39,18.48-38.45,43.52-52.75,60.21-10,11.71,8.77,32.73,32.19,17.88,36.66-23.25,59-55.14,61.69-73.32S882.57,552.32,863.83,573.45Z"/><path class="cls-9" d="M813.5,632.1c-10.69,7.64-16.19,6.72-25.65,14.66-3.06,3-8.86,18.32-10.08,23.82s3.66,2.13,6.11.61c-.92,3.66,5.49,2.44,8.24,1.83,9.77,3.36,18.63,0,25-6.11s11.6,1.83,22.9-13.74S813.5,632.1,813.5,632.1Z"/><path class="cls-12" d="M276.34,210.41c-6.28-5.78-21.43-10.25-29.67-9.3-26.83,3.1-32.33,30.79-25.59,56,16.79,62.72,15.44,111.51-11.15,124,47.6-4.72,64.56-49.88,50.32-107.5-5.53-22.38-10.56-54.07,8.05-44.26C282,236.5,276.34,210.41,276.34,210.41Z"/><path class="cls-25" d="M297.23,193.73c-15.09-.79-25,7.15-29.79,24.62s-2.78,27.8,9.93,29.79C280.55,243,297.23,193.73,297.23,193.73Z"/><path class="cls-26" d="M426.76,287.29c5.93,8.73,9.36,30.56-.93,51.45s-8.42,34-2.19,38c-12.78-5-21.82-12.16-14-30.56S426.76,287.29,426.76,287.29Z"/><path class="cls-9" d="M443.82,752.42s-49,151.7-53.33,174.47-20.17,14.07-18.35-5.27-2.61-112.43,15.06-170.48C422.93,732.39,443.82,752.42,443.82,752.42Z"/><path class="cls-27" d="M371.94,925.12c-14.29,21.71-11.75,35-7.22,37.73s33.68,5.08,33.85-2-8.08-34-8.08-34S374.2,931.34,371.94,925.12Z"/><path class="cls-27" d="M394.05,942.71c3.81,5.56,20.48,9.69,20.17,16.21s-19.64,9.35-37.33,6.39-2.83-19.5-2.83-19.5Z"/><path class="cls-27" d="M510.89,689.25c-1.32-7.63-11.71-21.5-21-27.9-20.43-14.12-47.9-37-47.9-37s-165-1.73-170.69.23c-1.19,19.87,2.94,52.5,15.8,63,15.39,12.63,37.1,22.1,41,35.12C334.35,743.08,510.89,689.25,510.89,689.25Z"/><path class="cls-9" d="M495.59,747.46s-52,150.69-56.76,173.38-20.45,13.67-18.25-5.63,1.3-99.62,20.12-157.3C476.78,739.86,495.59,747.46,495.59,747.46Z"/><path class="cls-25" d="M329,765.36s105.65,22.23,177.16-10c3.51-21.73,13.33-59.6-.35-76.42S447,659.6,397.64,665.52c-35,4.19-74.19,18.55-71.55,51.59C328,740.75,329,765.36,329,765.36Z"/><path class="cls-12" d="M421.34,307.29c20.41-29.35,29.63-96.51-13.72-124.83-41.37-27-102.31-17.1-124.1,26s1.67,107.08,1.67,107.08Z"/><path class="cls-9" d="M315.53,400.94c-13.47,6-23.37,13.88-27.24,26.72-5.12,17-10,48.77.49,71S327,440.69,315.53,400.94Z"/><path class="cls-9" d="M400,467.72s18.22,43.39,34,73.68c11.36,21.83,38.71,11.48,30-15.7-11.8-36.66-35.28-83.87-40.73-93.3-9-15.52-16.44-26-39.33-29.86C377.05,427.8,400,467.72,400,467.72Z"/><path class="cls-9" d="M395,404.52c11.47,5.36,19.86,19.32,21.34,28s-5.32,22.08-5.32,22.08S393.06,421.77,395,404.52Z"/><path class="cls-28" d="M348.8,392.28c19.19,0,35.14,3.54,48,12.84.36,4.09.06,12.54,5,20.31,6.34,10,21.7,20.43,26.33,34.34,5.1,15.3-17.92,35.48-16.22,57.08,4.46,56.64,32.14,107.72,32.14,107.72s-86.52,29.87-174.59,0c.11-16.15,36.19-50.25,26.29-86a333.14,333.14,0,0,1-9.7-46.41c23.24-15.38,34.85-58,26.72-90C324.31,396.26,337.56,392.28,348.8,392.28Z"/><path class="cls-15" d="M336.77,398.87,340,334.38l32.11,2.07,4.61,62.74c-3.56,8.16-13.65,19.81-13.65,19.81S344,412.18,336.77,398.87Z"/><path class="cls-9" d="M424.61,321.89c-6.05,39.47-34.19,66-73.9,62.47-36.12-3.19-61.1-53.68-62.12-99.74s23.67-82.5,67.28-81.82C422.68,203.83,437.35,238.7,424.61,321.89Z"/><path class="cls-9" d="M309.89,304.53c4.59,11.47,4.61,20.34-2.87,23.78s-23.79-.76-28.38-12.24-2.25-23.55,5.23-27S305.3,293.05,309.89,304.53Z"/><path class="cls-29" d="M377.51,307.7c5.88-.34,10.57,1.27,11,5.67s-5.67,6.17-10.5,6.06S372.93,308,377.51,307.7Z"/><path class="cls-17" d="M374.88,308.15a15.77,15.77,0,0,1,10.68.64c2.32,1,4.55,3.82,3.21,6.44-1.84,3.44-6,4.37-9.51,4.85,3-1.16,6.86-2.3,8.38-5.35.93-2.06-.87-3.92-2.65-4.85-3.08-1.61-6.62-1.84-10.11-1.73Z"/><path class="cls-30" d="M358,273.16c4,10.38,7.4,30-9,30.72-14.41.59-12.12-25.46-12.12-25.46S348.68,274.12,358,273.16Z"/><path class="cls-19" d="M356.22,299.88a2.78,2.78,0,1,1-2-3.39A2.77,2.77,0,0,1,356.22,299.88Z"/><path class="cls-20" d="M355,272.53c-15.4,2-24.27,7.26-14.53,6.45S365.16,271.22,355,272.53Z"/><path class="cls-31" d="M387.13,273.16c-4,10.38-7.41,30,9,30.72,14.41.59,12.12-25.46,12.12-25.46S396.45,274.12,387.13,273.16Z"/><path class="cls-19" d="M392.89,300.53a2.78,2.78,0,1,0,2-3.39A2.79,2.79,0,0,0,392.89,300.53Z"/><path class="cls-20" d="M390.13,272.53c15.4,2,24.28,7.26,14.53,6.45S380,271.22,390.13,272.53Z"/><path class="cls-22" d="M401.93,307.43c0,1.57,4.08,2.85,9.11,2.85s9.1-1.28,9.1-2.85-4.07-2.85-9.1-2.85S401.93,305.86,401.93,307.43Z"/><path class="cls-22" d="M320.81,307.43c0,1.57,4.08,2.85,9.11,2.85s9.1-1.28,9.1-2.85-4.07-2.85-9.1-2.85S320.81,305.86,320.81,307.43Z"/><path class="cls-26" d="M344.77,343c3.35,13,12.84,14.6,24.4,11.05a23.35,23.35,0,0,1-7.61,3c-9.2,2-17.08-4.74-16.79-14.06Z"/><path class="cls-27" d="M420.31,918.7c-14.71,21.43-12.44,34.82-8,37.59S445.93,962,446.23,955s-7.4-34.12-7.4-34.12S422.45,925,420.31,918.7Z"/><path class="cls-27" d="M442.07,936.72c3.7,5.64,20.28,10.1,19.85,16.61s-19.83,9-37.45,5.65S422,939.43,422,939.43Z"/><path class="cls-12" d="M302.94,217.76c4.73,28.4,21.3,43.19,73.66,47-27.81-6.21-46.15-37-46.15-37s23.67,35.49,68,36.08c-20.12-3.84-42.9-32.83-42.9-32.83S404.11,253,412.1,266c-1.48-12.43-17.75-36.09-17.75-36.09s26,28.69,29.28,53.84c5.62-10.36,11.06-70.25-26.92-81.36C341.1,186.1,302.94,217.76,302.94,217.76Z"/><path class="cls-12" d="M296.13,239.65c-10.94,22.64-21.59,50-9.46,67.15s12.42,43.19-1.18,56.8c28.39-11,29.87-29.29,21.89-55.32s26.62-41.42,13-65.67S309.15,212.73,296.13,239.65Z"/><path class="cls-9" d="M303.26,472.24s-14,64-24,96.62c-7.2,23.53-36,18.32-32.31-10C251.87,520.67,270.37,452,274,441.72c6-16.89,11.45-28.52,33.24-36.51C318.51,428.83,303.26,472.24,303.26,472.24Z"/><path class="cls-9" d="M285.37,568a333.84,333.84,0,0,0,63,65.34c12.89,10.3.65,27.38-15.26,17.22-45.89-29.3-78.87-57.66-84.49-76.51S269.12,545.93,285.37,568Z"/><path class="cls-9" d="M345.25,631.1c8.57,4.9,20,7.53,28.79,10.44,2.85,2.13,10.12,12,11.76,16.3s-2.73,2.17-4.9,1.21c1.18,2.88-4.2,2.64-6.51,2.47-7.57,3.89-9.74,4.21-14.37-1.43-6.76-8.24-17.36-2.62-27-9.11C319.8,642.17,334.69,625.07,345.25,631.1Z"/><path class="cls-9" d="M462,519.62c41.81,31.54,80.58,31.16,83.24,50.17,1.43,10.23-6.84,15.58-16,16C500.4,587,449.83,560.66,440,548.5S453.16,513,462,519.62Z"/><path class="cls-32" d="M522,673.55s17.73,8.91,52.34,8.91,48.84-9.69,48.84-9.69-23.28-74.58-27.13-83c-4.1-8.94-7.23-13-23.44-13h0c-15.88,0-19.77,2.93-24.75,13.69C540.46,606.35,522,673.55,522,673.55Z"/><path class="cls-33" d="M552.91,585.79s-23,5.67-36.86,5.31c6,11.7,34.38,5.67,34.38,5.67Z"/><path class="cls-34" d="M585.26,584.89c0,5.13-13.53,14.41-13.53,14.41s-13.52-9.28-13.52-14.41,6-9.28,13.52-9.28S585.26,579.77,585.26,584.89Z"/><path class="cls-35" d="M582.18,584.89c0,3.62-10.45,10.82-10.45,10.82s-10.44-7.2-10.44-10.82,4.67-6.55,10.44-6.55S582.18,581.28,582.18,584.89Z"/><path class="cls-12" d="M724.59,429c-18.84-17.17-38.77-26.36-56.81-24.74s-32.16,27.11-36.55,36.38a9.1,9.1,0,0,0,8,9.11C651.6,434.51,662.73,432,675.21,445c9.51,9.83,11.12,22.92,11.12,22.92a28.94,28.94,0,0,0,15.75-8L692,447l11.81,11.29s4.1-1.37,7.53-7.87c-5.82-7.7-25.84-23.1-25.84-23.1l29.09,20.53s4.07-2.09,7.15-10c-3.58-5.55-14.45-13.08-14.45-13.08L724,435A22.91,22.91,0,0,1,724.59,429Z"/><path class="cls-36" d="M643.8,450.66c-2,1.54-6.58-1.05-10.32-5.79s-5.2-9.84-3.24-11.39,6.58,1,10.32,5.8S645.76,449.12,643.8,450.66Z"/><path class="cls-12" d="M410.56,429c18.84-17.17,38.77-26.36,56.81-24.74s32.16,27.11,36.55,36.38a9.1,9.1,0,0,1-8.05,9.11C483.55,434.51,472.42,432,459.94,445c-9.51,9.83-11.12,22.92-11.12,22.92a28.88,28.88,0,0,1-15.74-8L443.17,447l-11.81,11.29s-4.1-1.37-7.52-7.87c5.81-7.7,25.83-23.1,25.83-23.1l-29.09,20.53s-4.06-2.09-7.14-10c3.57-5.55,14.44-13.08,14.44-13.08L411.17,435A22.44,22.44,0,0,0,410.56,429Z"/><path class="cls-36" d="M491.35,450.66c2,1.54,6.58-1.05,10.32-5.79s5.2-9.84,3.24-11.39-6.57,1-10.32,5.8S489.4,449.12,491.35,450.66Z"/><path class="cls-12" d="M533.77,569.4c-16.66-2-67.52-38.87-51.66-96.18,14.67-53,69.47-59.27,86.66-59.27s58.27,6,76.75,41.41c18.84,36.11,16,85.16-27.13,105.55S533.77,569.4,533.77,569.4Z"/><ellipse class="cls-33" cx="572.79" cy="518.16" rx="69" ry="69.02"/><path class="cls-37" d="M570.25,541.26c1.76-1.88,4.79-3.61,7.4-2.39a3.57,3.57,0,0,1,2,3.22c0,2.42-1.7,4.49-3.56,5.72,4.79-6.77,1.33-10.19-5.86-6.55Z"/><path class="cls-12" d="M498.57,504.58c.79,12.7,7.14,18.65,7.14,18.65s-3.57-18.25,19-28.56,42.43-10.31,46.4-32.52c4.36,18.64,20.62,29,40.06,33.31s25.78,18.25,27,27.77c11.9-15.47,6.74-34.11,5.15-48s-26.57-44-72.58-41.25S497.38,463.73,498.57,504.58Z"/><path class="cls-12" d="M553.63,507.49c.21,1.4-4.16,3.23-9.77,4.09s-10.33.42-10.54-1,4.15-3.23,9.76-4.09S553.41,506.08,553.63,507.49Z"/><path class="cls-12" d="M591,507.49c-.21,1.4,4.16,3.23,9.77,4.09s10.33.42,10.55-1-4.16-3.23-9.77-4.09S591.17,506.08,591,507.49Z"/><ellipse class="cls-37" cx="558.46" cy="533.04" rx="2.79" ry="4.73"/><path class="cls-37" d="M587.89,533c0,2.61-1.25,4.72-2.79,4.72s-2.8-2.11-2.8-4.72,1.25-4.73,2.8-4.73S587.89,530.43,587.89,533Z"/><path class="cls-38" d="M602.4,542.46c0,1.25-3.13,2.26-7,2.26s-7-1-7-2.26,3.14-2.27,7-2.27S602.4,541.21,602.4,542.46Z"/><path class="cls-38" d="M554.87,542.46c0,1.25-3.14,2.26-7,2.26s-7-1-7-2.26,3.14-2.27,7-2.27S554.87,541.21,554.87,542.46Z"/><path class="cls-39" d="M552.86,559.28c6.41.09,28.42-1.56,38.12-7.45-.6,20.62-7.2,26-17.24,27.46C562.65,580.94,553.64,569.33,552.86,559.28Z"/><path class="cls-40" d="M575.13,574c-1.66-.66-7.46.12-10.18,3.8a14.63,14.63,0,0,0,8.79,1.46c4.67-.69,8.59-2.22,11.52-5.74A8.82,8.82,0,0,0,575.13,574Z"/><path class="cls-33" d="M648.65,535.05c-4.92,6.05-11.55,8.81-14.81,6.16s-1.91-9.7,3-15.75,11.55-8.82,14.8-6.17S653.57,529,648.65,535.05Z"/><path class="cls-35" d="M639.5,537.69c.18-3.06,3.76-12.41,7.66-14.05S650,531.08,639.5,537.69Z"/><path class="cls-33" d="M497,535.05c4.92,6.05,11.55,8.81,14.81,6.16s1.91-9.7-3-15.75-11.55-8.82-14.8-6.17S492.06,529,497,535.05Z"/><path class="cls-35" d="M506.13,537.69c-.18-3.06-3.76-12.41-7.66-14.05S495.59,531.08,506.13,537.69Z"/><path class="cls-41" d="M596.71,630a9.23,9.23,0,0,0-4.71-8,9.25,9.25,0,0,0-11.4-11.4,9.25,9.25,0,0,0-16.12,0A9.24,9.24,0,0,0,553.09,622a9.24,9.24,0,0,0,0,16.11,9.24,9.24,0,0,0,11.39,11.4,9.25,9.25,0,0,0,16.12,0,9.25,9.25,0,0,0,11.4-11.4A9.25,9.25,0,0,0,596.71,630Z"/><path class="cls-42" d="M579.12,629.63a6.58,6.58,0,1,1-6.58-6.59A6.58,6.58,0,0,1,579.12,629.63Z"/><path class="cls-43" d="M483.14,575a28.37,28.37,0,0,0,5.16-2.63c8.95,3.3,25,4.49,41.29,5.44,25.37,1.48,38.76,4,40.89,11v9.89Z"/><path class="cls-43" d="M657.79,575a28.13,28.13,0,0,1-5.15-2.63c-8.95,3.3-25,4.49-41.29,5.44-25.37,1.48-38.76,4-40.89,11v9.89Z"/><polygon class="cls-44" points="564.91 701.21 505.27 690.95 479.92 575.53 481.5 573.93 564.91 593.75 564.91 701.21"/><polygon class="cls-44" points="576.91 701.21 636.17 690.53 661.85 575.53 659.69 574.1 576.91 593.75 576.91 701.21"/><path class="cls-44" d="M564.91,701.21c3.92,3.06,7.93,2.94,12,0V593.75c-4,2.77-8,3.08-12,0Z"/><polygon class="cls-45" points="564.91 703.15 505.65 692.47 479.97 575.53 564.91 595.69 564.91 703.15"/><polygon class="cls-45" points="576.91 703.15 636.17 692.47 661.85 575.53 576.91 595.69 576.91 703.15"/><path class="cls-46" d="M564.91,703.15c3.92,3.05,7.93,2.94,12,0V595.69c-4,2.77-8,3.08-12,0Z"/><path class="cls-27" d="M539.32,690.75c5.25,5.65,6.26,13.86-1.37,19.32-4,2.86-7.71-2.14-12.54-8.15s-8.78-10.55-4.94-13.64S532.53,683.45,539.32,690.75Z"/><path class="cls-32" d="M536.16,693.59c4.83,6,5.63,13.39,1.79,16.48s-10.87.7-15.69-5.31-5.63-13.39-1.79-16.48S531.34,687.58,536.16,693.59Z"/><path class="cls-27" d="M604.6,690.75c-5.25,5.65-6.27,13.86,1.37,19.32,4,2.86,7.71-2.14,12.54-8.15s8.78-10.55,4.94-13.64S611.38,683.45,604.6,690.75Z"/><path class="cls-32" d="M607.75,693.59c-4.83,6-5.63,13.39-1.78,16.48s10.86.7,15.69-5.31,5.63-13.39,1.79-16.48S612.58,687.58,607.75,693.59Z"/><path class="cls-33" d="M485,598.34c-6.32,3.57-7.81,24.26,8.22,21.92,8.91-1.3,6.83-17.91-6.87-15.48C485.92,602.76,485,598.34,485,598.34Z"/><path id="Group_1" data-name="Group 1" class="cls-47" d="M144.34,875.42c-.2,0-.49-37.15-.64-83s-.06-83,.18-83,.5,37.16.65,83,0,83-.19,83Z"/><path id="Group_1-2" data-name="Group 1" class="cls-47" d="M169.5,782.44a3.32,3.32,0,0,1-.31.86c-.26.62-.61,1.41-1,2.41-.24.51-.46,1.1-.74,1.72s-.49,1.38-.77,2.11-.57,1.57-.88,2.43-.53,1.8-.82,2.75a111.6,111.6,0,0,0-3.16,13.81,168.78,168.78,0,0,0-1.77,17.3,232.12,232.12,0,0,0,.9,31.59c.37,4,.72,7.27,1,9.53.11,1.07.23,1.93.3,2.61a4,4,0,0,1,0,.92,4.8,4.8,0,0,1-.22-.9c-.11-.68-.24-1.53-.43-2.57-.36-2.26-.82-5.49-1.25-9.53a208.43,208.43,0,0,1-1.13-31.68,159.4,159.4,0,0,1,1.81-17.38,106.72,106.72,0,0,1,3.35-13.88c.31-1,.57-1.89.9-2.76s.64-1.65.93-2.42.57-1.43.81-2.07.57-1.2.81-1.73c.48-1,.84-1.73,1.16-2.33a5,5,0,0,1,.49-.79Z"/><path id="Group_1-3" data-name="Group 1" class="cls-47" d="M166.62,752.39a7.19,7.19,0,0,1-.35,1.23c-.29.87-.68,2-1.18,3.46-.25.77-.55,1.57-.86,2.49s-.57,1.95-.92,3c-.66,2.15-1.41,4.6-2.09,7.35-.39,1.36-.75,2.81-1.14,4.3s-.68,3.08-1.05,4.7c-.79,3.23-1.37,6.76-2.09,10.41-1.25,7.38-2.35,15.54-3.1,24.15s-1,16.84-1.14,24.34.07,14.21.36,19.88c.11,2.83.28,5.39.45,7.63s.27,4.18.4,5.76.22,2.74.28,3.62a6,6,0,0,1,0,1.29,8.85,8.85,0,0,1-.18-1.25c-.11-.9-.26-2.11-.44-3.64s-.37-3.51-.55-5.77-.41-4.79-.54-7.62c-.4-5.67-.53-12.41-.55-19.94s.35-15.74,1.07-24.37,1.87-16.81,3.18-24.21c.73-3.67,1.34-7.2,2.14-10.45.41-1.61.76-3.17,1.12-4.7s.81-2.92,1.2-4.29c.71-2.76,1.52-5.18,2.22-7.31.35-1.09.68-2.08,1-3s.65-1.71.94-2.48c.55-1.43,1-2.55,1.34-3.41a4.46,4.46,0,0,1,.48-1.18Z"/><path id="Group_1-4" data-name="Group 1" class="cls-47" d="M137.2,882a1.37,1.37,0,0,1-.06-.44c0-.33,0-.75-.09-1.27-.07-1.17-.2-2.82-.33-4.9-.28-4.33-.66-10.5-1.14-18.11-1-15.28-2.4-36.38-5-59.59-1.3-11.61-2.82-22.63-4.4-32.62-.85-5-1.6-9.73-2.48-14.16s-1.67-8.52-2.44-12.26-1.57-7.13-2.25-10.09-1.28-5.49-1.81-7.56-.9-3.64-1.18-4.78c-.11-.51-.22-.91-.29-1.25s-.08-.44-.08-.44a2.06,2.06,0,0,1,.15.43c.11.31.22.71.39,1.23.31,1.14.75,2.71,1.32,4.74s1.25,4.59,2,7.54,1.57,6.34,2.36,10.09,1.71,7.84,2.54,12.26,1.67,9.17,2.55,14.16c1.62,10,3.18,21,4.5,32.65,2.57,23.24,3.89,44.37,4.74,59.65.4,7.66.7,13.85.88,18.13.07,2.07.13,3.75.17,4.9,0,.54,0,1,0,1.31a1.45,1.45,0,0,1,0,.38Z"/><path id="Group_7" data-name="Group 7" class="cls-48" d="M104,685.18q-3.72,6.72-7.44,13.48c-.17.31-.4.66-.75.69s-.68-.33-.9-.66L75.18,668.48l4.54-2.57Z"/><path id="Group_5" data-name="Group 5" class="cls-49" d="M143.88,709.45q-33.57-19.83-67.16-39.63a3.2,3.2,0,0,1-1.63-1.63c-.28-1,.48-2,1.19-2.7,9.24-9.51,22.65-15,35.89-14.09s26,8.58,32.43,20.19,6.72,26.86-.72,37.86"/><path id="Group_4" data-name="Group 4" class="cls-47" d="M86.42,657.21a2.58,2.58,0,0,1,.86-.13c.59,0,1.43-.13,2.55-.11a50.7,50.7,0,0,1,9.32.73,55.48,55.48,0,0,1,13.26,4A54.42,54.42,0,0,1,142.62,697a50,50,0,0,1,1.65,9.18c.11,1.11.09,2,.15,2.56s0,.86,0,.86-.15-1.19-.42-3.38a57.5,57.5,0,0,0-1.9-9.09,54.86,54.86,0,0,0-43-38.91,58.79,58.79,0,0,0-9.21-1,33.51,33.51,0,0,1-3.41,0Z"/><path id="Group_3" data-name="Group 3" class="cls-47" d="M134.79,682.13a17.33,17.33,0,0,1-3.4,1.54c-2.14.83-5.14,1.91-8.48,3s-6.39,1.92-8.65,2.46a17.39,17.39,0,0,1-3.65.71,17.21,17.21,0,0,1,3.5-1.25c2.48-.79,5.37-1.69,8.54-2.68s6.06-1.94,8.54-2.75c2.19-.72,3.55-1.14,3.6-1Z"/><path id="Group_2" data-name="Group 2" class="cls-47" d="M124.21,653.72c.22,0,.7,3.34.81,7.49s-.2,7.55-.4,7.53-.28-3.36-.41-7.49-.22-7.51,0-7.53Z"/><path id="Group_1-5" data-name="Group 1" class="cls-47" d="M76.15,669.09A27.4,27.4,0,0,1,81,667.36c3-.93,7.31-2.13,12-3.27s9-2,12.19-2.59a34.15,34.15,0,0,1,5.13-.69,31.29,31.29,0,0,1-5,1.25c-3.1.69-7.4,1.67-12.12,2.79s-9,2.24-12.06,3a34,34,0,0,1-5,1.19Z"/><path id="Group_6" data-name="Group 6" class="cls-49" d="M143.42,727.31c-.47-5.28-5.8-9.22-11.07-9.28s-10.21,3.12-13.46,7.29-5,9.29-6.48,14.36c-3.55,12.4-5.5,25.44-4,38.26s6.7,25.4,15.9,34.47c1.51,1.45,3.44,2.94,5.49,2.5a6.69,6.69,0,0,0,2.89-1.8A85.6,85.6,0,0,0,160.48,748c-.12-4.88-.77-9.93-3.47-14s-9-8.34-13.59-6.72"/><path id="Group_5-2" data-name="Group 5" class="cls-47" d="M127.21,816a4.51,4.51,0,0,1-.09-.92c0-.68-.08-1.56-.13-2.63-.09-2.28-.11-5.6,0-9.71s.35-9,.83-14.4,1.28-11.31,2.37-17.48,2.42-12,3.82-17.25,2.84-9.92,4.18-13.77,2.5-7,3.4-9.09c.42-1,.77-1.8,1-2.45a3,3,0,0,1,.4-.82,3.51,3.51,0,0,1-.25.88c-.24.64-.54,1.49-.89,2.48-.79,2.15-1.87,5.27-3.14,9.16s-2.62,8.58-4,13.81-2.62,11.06-3.74,17.17-1.86,12-2.43,17.41-.84,10.25-1,14.35-.22,7.38-.22,9.68c0,1.06,0,1.94,0,2.62a3.68,3.68,0,0,1-.05,1Z"/><path id="Group_4-2" data-name="Group 4" class="cls-47" d="M130.77,770.22a18,18,0,0,1-2.68,2.94c-1.75,1.75-4.21,4.06-7,6.52s-5.43,4.61-7.38,6.12a16.92,16.92,0,0,1-3.27,2.26,19.67,19.67,0,0,1,2.9-2.72c2.08-1.78,4.52-3.91,7.24-6.26s5.1-4.52,7.16-6.34a19.09,19.09,0,0,1,3.05-2.52Z"/><path id="Group_3-2" data-name="Group 3" class="cls-47" d="M152,787.34a30.51,30.51,0,0,1-2.85-4c-1.83-2.66-4.11-6-6.65-9.68l-6.75-9.58a33.39,33.39,0,0,1-2.72-4,29.25,29.25,0,0,1,3.16,3.71c1.85,2.37,4.35,5.69,7,9.47s4.87,7.26,6.45,9.83a32,32,0,0,1,2.37,4.24Z"/><path id="Group_2-2" data-name="Group 2" class="cls-47" d="M140.87,733.5c.13.2-6.94,4.93-15.77,10.63s-16.09,10.12-16.2,9.93,6.92-4.94,15.77-10.63,16.09-10.12,16.2-9.93Z"/><path id="Group_1-6" data-name="Group 1" class="cls-47" d="M160.78,755c-.15.15-4.94-4.26-10.67-9.86S139.84,734.85,140,734.69s4.94,4.26,10.69,9.88,10.26,10.25,10.1,10.43Z"/><path id="Group_6-2" data-name="Group 6" class="cls-49" d="M165.77,754.56l6.06-.5a30.11,30.11,0,0,0,12.23-3.74,47.15,47.15,0,0,1,5.72-2.89c7.49-3,15.85-2.48,23.91-2.86a99.15,99.15,0,0,0,38-9.72,3.74,3.74,0,0,0,1.67-1.5c1.25-2.26-1.08-4.3-3.07-5.51-10.21-6.28-20.6-12.67-32.19-15.8s-24.72-2.59-34.6,4.21c-11.57,8-15.77,24.35-17.76,38.31"/><path id="Group_5-3" data-name="Group 5" class="cls-47" d="M253.54,732.58a5.91,5.91,0,0,1-1-.48c-.72-.39-1.69-.88-2.86-1.51-2.5-1.3-6.08-3.23-10.64-5.41a98.93,98.93,0,0,0-16.42-6.34,53.53,53.53,0,0,0-21.26-1.71c-7.53,1-14.49,3.91-19.41,8.32a43.62,43.62,0,0,0-10.1,14.2,118.13,118.13,0,0,0-4.39,11.05c-.46,1.27-.81,2.28-1.09,3.07a5.05,5.05,0,0,1-.42,1.05,5.51,5.51,0,0,1,.28-1.09c.22-.79.53-1.82.93-3.1a94.91,94.91,0,0,1,4.17-11.19,43,43,0,0,1,10.14-14.5c5-4.56,12.12-7.59,19.8-8.58a53.85,53.85,0,0,1,21.57,1.82,95.62,95.62,0,0,1,16.48,6.54c4.52,2.24,8.06,4.26,10.5,5.65,1.16.7,2.1,1.23,2.79,1.66a4.8,4.8,0,0,1,1,.55Z"/><path id="Group_4-3" data-name="Group 4" class="cls-47" d="M239,740.42c-.11.16-8-4.94-17.7-11.46S203.92,717,204.05,716.84s8,4.94,17.7,11.46,17.37,11.92,17.24,12.12Z"/><path id="Group_3-3" data-name="Group 3" class="cls-47" d="M148.78,679.7c0,.22-2.72.92-6.19,1.25s-6.3.13-6.3-.09,2.81-.39,6.22-.7,6.21-.68,6.27-.46Z"/><path id="Group_2-3" data-name="Group 2" class="cls-47" d="M195.84,709.71c.2.11-1,2.44-2.59,5.18s-3.11,4.9-3.31,4.79,1-2.44,2.61-5.19,3.1-4.89,3.29-4.78Z"/><path id="Group_1-7" data-name="Group 1" class="cls-47" d="M202.94,745.08a22,22,0,0,1-3.8-2.07c-2.28-1.38-5.38-3.44-8.68-5.82s-6.23-4.67-8.32-6.32a23.74,23.74,0,0,1-3.31-2.83,20.86,20.86,0,0,1,3.64,2.35c2.38,1.75,5.25,3.84,8.44,6.14s6.34,4.49,8.54,6a26,26,0,0,1,3.49,2.57Z"/><path id="Group_6-3" data-name="Group 6" class="cls-49" d="M174.72,780.31c-5.77-1.53-12.67,4.09-13.85,10s1,11.85,3.56,17.26c5.7,11.94,13.56,23,23.91,31.28s23.31,13.52,36.55,13.44c-2.44-11.35.64-23.21-.72-34.74a45.27,45.27,0,0,0-40-39.64c-3.69-.38-8-1-9.44,2.45"/><path id="Group_5-4" data-name="Group 5" class="cls-47" d="M224.89,852.24a4.5,4.5,0,0,1-.83-.38,20.7,20.7,0,0,1-2.16-1.45,22.73,22.73,0,0,1-5.7-7.64c-.92-1.79-1.94-3.73-3-5.86s-2-4.47-3.11-6.89a67.84,67.84,0,0,0-3.82-7.33,57.53,57.53,0,0,0-5.25-7.14c-4-4.65-8.19-8.67-11.88-12.53a79.61,79.61,0,0,1-9-10.87,39.43,39.43,0,0,1-4.45-8.45,24.47,24.47,0,0,1-.77-2.48,2.79,2.79,0,0,1-.18-.88c.07,0,.42,1.18,1.25,3.27a43.29,43.29,0,0,0,4.61,8.25,84.78,84.78,0,0,0,9.1,10.69c3.7,3.8,8,7.8,12,12.5a57.89,57.89,0,0,1,5.31,7.28,63.37,63.37,0,0,1,3.82,7.45c1.08,2.41,2.09,4.74,3,6.91s2,4.09,2.85,5.89a23.26,23.26,0,0,0,5.42,7.66c1.69,1.38,2.83,1.93,2.79,2Z"/><path id="Group_4-4" data-name="Group 4" class="cls-47" d="M195,842.82a20.36,20.36,0,0,1,.54-3.89c.45-2.39,1.19-5.64,2.2-9.22s2.07-6.72,2.94-9a16.64,16.64,0,0,1,1.58-3.58,21.09,21.09,0,0,1-1,3.78c-.72,2.3-1.69,5.49-2.68,9s-1.82,6.77-2.42,9.12a18.73,18.73,0,0,1-1.11,3.75Z"/><path id="Group_3-4" data-name="Group 3" class="cls-47" d="M223.79,814.94a25,25,0,0,1-4.08-.93c-2.5-.65-5.93-1.55-9.75-2.41s-7.33-1.52-9.84-2a26.82,26.82,0,0,1-4.08-.9,19.39,19.39,0,0,1,4.17.33c2.57.33,6.09.92,9.93,1.8s7.29,1.85,9.75,2.63a19.86,19.86,0,0,1,3.9,1.48Z"/><path id="Group_2-4" data-name="Group 2" class="cls-47" d="M173.52,823a26.89,26.89,0,0,1,.63-4.52c.51-2.73,1.32-6.55,2.4-10.68s2.23-7.85,3.14-10.51a22.21,22.21,0,0,1,1.67-4.24,26.88,26.88,0,0,1-1.12,4.42c-.75,2.69-1.81,6.4-2.9,10.55s-2,7.87-2.62,10.61a24.15,24.15,0,0,1-1.2,4.37Z"/><path id="Group_1-8" data-name="Group 1" class="cls-47" d="M210.53,790.66c0,.21-7.26-.38-16.13-1.32s-16.07-1.87-16-2.09,7.24.37,16.13,1.3,16.05,1.89,16,2.11Z"/><polygon id="Group_8" data-name="Group 8" class="cls-47" points="102.6 873.07 118.83 953.28 179 953.28 194.72 878.25 102.6 873.07"/><polygon id="Group_7-2" data-name="Group 7" class="cls-50" points="102.6 945.68 111.27 957.62 184.36 957.62 194.72 945.68 102.6 945.68"/><path id="Group_6-4" data-name="Group 6" class="cls-51" d="M205.24,878.17c0,.21-25.38.41-56.66.41s-56.65-.19-56.65-.41,25.36-.42,56.65-.42,56.66.2,56.66.42Z"/><path id="Group_5-5" data-name="Group 5" class="cls-51" d="M187.59,910.83c0,.2-17.1.4-38.16.4s-38.18-.17-38.18-.4,17.08-.43,38.18-.43,38.16.19,38.16.43Z"/><path id="Group_4-5" data-name="Group 4" class="cls-51" d="M188.25,915.49c0,.2-17.1.4-38.16.4s-38.18-.16-38.18-.4,17.08-.42,38.18-.42,38.16.2,38.16.42Z"/><path id="Group_3-5" data-name="Group 3" class="cls-51" d="M188.25,907c0,.22-17.68.42-39.48.42s-39.51-.18-39.51-.42,17.67-.4,39.51-.4,39.48.18,39.48.4Z"/><rect id="Group_2-5" data-name="Group 2" class="cls-50" x="92.11" y="862.73" width="112.93" height="15.52"/><rect id="Group_1-9" data-name="Group 1" class="cls-50" x="92.32" y="862.91" width="112.54" height="15.13"/><path id="Group_5-6" data-name="Group 5" class="cls-49" d="M115.6,716c-5.79-4.37-11.88-5.24-19.14-5s-14.29,2.49-20.92,5.42c-11.31,4.95-22,12.24-28.74,22.6s-9.11,24-4,35.3A5,5,0,0,0,45,777.16a5.35,5.35,0,0,0,3.78-.29c12.88-4.19,25.84-8.43,37.69-15s22.62-15.72,29-27.67a23.68,23.68,0,0,0,3-9.2,11.43,11.43,0,0,0-2.92-9"/><path id="Group_4-6" data-name="Group 4" class="cls-47" d="M115.71,714.67a9.27,9.27,0,0,1-.92.36c-.7.24-1.6.55-2.68.94l-2,.64c-.71.26-1.47.57-2.29.9-1.62.66-3.51,1.31-5.51,2.3l-3.16,1.43c-1.08.51-2.19,1.14-3.34,1.73-2.34,1.13-4.7,2.6-7.2,4.09a123.18,123.18,0,0,0-15.25,11.3A128.84,128.84,0,0,0,60.27,752c-1.8,2.31-3.57,4.48-5,6.65-.75,1.06-1.49,2-2.13,3.1s-1.25,2-1.84,2.94c-1.21,1.85-2.11,3.65-3,5.18-.41.77-.81,1.48-1.16,2.15s-.62,1.28-.9,1.85c-.53,1.05-.94,1.89-1.27,2.55a5.09,5.09,0,0,1-.49.88,4.62,4.62,0,0,1,.35-.93L46,773.76c.26-.57.54-1.19.85-1.89s.72-1.39,1.1-2.18c.83-1.56,1.71-3.38,2.87-5.26l1.8-3c.62-1.05,1.39-2.06,2.11-3.14,1.43-2.21,3.16-4.41,5-6.72a120.24,120.24,0,0,1,13.18-13.83,123,123,0,0,1,15.39-11.33c2.54-1.49,4.94-2.94,7.31-4.06,1.16-.59,2.28-1.2,3.36-1.69s2.17-1,3.22-1.4c2-.93,3.91-1.56,5.58-2.18.82-.3,1.6-.61,2.31-.83s1.4-.4,2-.59c1.12-.33,2-.58,2.74-.77a2.24,2.24,0,0,1,.92-.25Z"/><path id="Group_3-6" data-name="Group 3" class="cls-47" d="M70.6,739.09c.06.2-6.22,2.24-14,4.52s-14.22,4-14.27,3.74,6.22-2.24,14.05-4.51,14.19-4,14.26-3.75Z"/><path id="Group_2-6" data-name="Group 2" class="cls-47" d="M70,770.09a22.61,22.61,0,0,1-.32-4.39c-.07-2.7-.07-6.43,0-10.58s.33-7.86.57-10.56a27.08,27.08,0,0,1,.55-4.35,25.06,25.06,0,0,1,0,4.39c-.09,3-.2,6.57-.33,10.56s-.2,7.6-.27,10.58a21.26,21.26,0,0,1-.24,4.35Z"/><path id="Group_1-10" data-name="Group 1" class="cls-47" d="M63.52,721.81a23.22,23.22,0,0,1,4.51-.13c2.78,0,6.62.09,10.84.22s8.06.31,10.83.48a24.43,24.43,0,0,1,4.49.42,21.84,21.84,0,0,1-4.49.15c-2.77,0-6.63-.11-10.85-.24s-8.06-.31-10.83-.48a24.33,24.33,0,0,1-4.5-.42Z"/><path id="Group_1-11" data-name="Group 1" class="cls-47" d="M96.62,757.23c-.22,0-.94-7.61-1.58-17s-1-17-.79-17,.94,7.6,1.58,17,1,17,.79,17.05Z"/></g></g></svg>