<svg xmlns="http://www.w3.org/2000/svg" xmlns:xlink="http://www.w3.org/1999/xlink" viewBox="0 0 991.4 832.06"><defs><style>.cls-1{fill:#dee9e1;}.cls-2{fill:#57362b;}.cls-3{fill:#8d594a;}.cls-4{fill:#d0740f;}.cls-5{fill:#f4a101;}.cls-6{fill:#fbc001;}.cls-7{fill:#fac98d;}.cls-8{fill:#007a8a;}.cls-9{fill:#343b3d;}.cls-10{fill:#af6522;}.cls-11{fill:#3f4549;}.cls-12{fill:#003f52;}.cls-13{fill:#eeaa68;}.cls-14{fill:url(#linear-gradient);}.cls-15{fill:#a56052;}.cls-16{fill:url(#linear-gradient-2);}.cls-17{fill:#64361a;}.cls-18{fill:#974d1e;}.cls-19{fill:url(#linear-gradient-3);}.cls-20{fill:#f3a19c;}.cls-21{fill:#46271e;}.cls-22{fill:#5d6365;}.cls-23{fill:#e50057;}.cls-24{fill:#804b29;}.cls-25{fill:#a8134b;}.cls-26{fill:#ee756d;}.cls-27{fill:url(#linear-gradient-4);}.cls-28{fill:url(#linear-gradient-5);}.cls-29{fill:url(#linear-gradient-6);}.cls-30{fill:#e31c76;}.cls-31{fill:#fbca8e;}.cls-32{fill:#8d344c;}.cls-33{fill:#e09d5e;}.cls-34{fill:#cd697d;}.cls-35{fill:#3e221d;}.cls-36{fill:#eb95af;}.cls-37{fill:#021b40;}.cls-38{fill:#e0005f;}.cls-39{fill:#fff;}.cls-40{fill:#fdc300;}.cls-41{fill:#fffbde;}.cls-42{fill:#f8c8e0;}.cls-43{fill:#f093a2;}.cls-44{fill:#ef767d;}.cls-45{fill:#263238;}.cls-46{fill:#93ae80;}.cls-47{fill:#9ebb89;}.cls-48{fill:#3e535d;}.cls-49{fill:#455a64;}</style><linearGradient id="linear-gradient" x1="-575.27" y1="531.53" x2="-590.58" y2="541.05" gradientTransform="matrix(-0.92, 0.38, 0.38, 0.92, -17.8, -123.05)" gradientUnits="userSpaceOnUse"><stop offset="0" stop-color="#d28178"/><stop offset="1" stop-color="#f6b9ad" stop-opacity="0"/></linearGradient><linearGradient id="linear-gradient-2" x1="868.16" y1="7.33" x2="875.19" y2="31.18" gradientTransform="translate(-134.24 -114.61) rotate(14.55)" gradientUnits="userSpaceOnUse"><stop offset="0" stop-color="#d99b68"/><stop offset="1" stop-color="#d99b68" stop-opacity="0"/></linearGradient><linearGradient id="linear-gradient-3" x1="585.11" y1="80.82" x2="592.14" y2="104.67" gradientTransform="matrix(-0.97, 0.25, 0.25, 0.97, 1304.33, -114.61)" xlink:href="#linear-gradient-2"/><linearGradient id="linear-gradient-4" x1="538.95" y1="81.31" x2="529.7" y2="87.05" gradientTransform="translate(-118.23 -123.05) rotate(22.55)" xlink:href="#linear-gradient"/><linearGradient id="linear-gradient-5" x1="1752.08" y1="-211.47" x2="1759.26" y2="-187.11" gradientTransform="translate(-1440.36 -114.61) rotate(14.55)" xlink:href="#linear-gradient-2"/><linearGradient id="linear-gradient-6" x1="991.57" y1="-14.02" x2="998.76" y2="10.35" gradientTransform="matrix(-0.97, 0.25, 0.25, 0.97, 1319.73, -114.61)" xlink:href="#linear-gradient-2"/></defs><g id="Layer_2" data-name="Layer 2"><g id="Layer_1-2" data-name="Layer 1"><ellipse class="cls-1" cx="508.81" cy="783.81" rx="482.59" ry="48.25"/><polygon class="cls-2" points="831.49 725.75 837.43 752.88 826.34 752.88 814.89 725.75 831.49 725.75"/><polygon class="cls-2" points="205.89 725.75 199.95 752.88 211.04 752.88 222.5 725.75 205.89 725.75"/><polygon class="cls-3" points="189.18 726.93 848.2 726.93 848.2 695.36 195.29 695.36 189.18 726.93"/><path class="cls-4" d="M121.69,679.14c2.28,8.22,10.21,22.29,26.07,22.29H883.63c18.49,0,28.71-13.43,28.71-22.29Z"/><polygon class="cls-5" points="121.69 679.14 912.34 679.14 881.11 637.25 156.73 632.13 121.69 679.14"/><path class="cls-6" d="M926.74,420.54c5.62-53.9-32.9-89.24-89.31-89.24H215.36c-73.8,0-99.8,43.61-104,89.24s-18.17,97.2,77.81,111.23,633.45,17.28,682.62,0S922.81,458.27,926.74,420.54Z"/><path class="cls-5" d="M149.25,444.59c3.08-54.22,19.27-85.53,63.52-85.53H825.9c36.7,0,77.72,22.08,64.76,85.53S878,514.5,836.28,524.22s-611.12,0-637.48,0-46.14-8.64-49.55-25.91S149.25,444.59,149.25,444.59Z"/><path class="cls-4" d="M59,449.72c2.67-16.8,14.52-24,35.93-27.65,14.79-2.49,45.15-2.76,57.13,5.53s17.5,59,26.72,94.9c-10.14,18.43-19.35,106-19.35,106l-37.78,50.68S42.45,586.08,59,449.72Z"/><path class="cls-4" d="M975,449.72c-2.67-16.8-14.52-24-35.93-27.65-14.79-2.49-45.15-2.76-57.13,5.53s-17.5,59-26.72,94.9c10.14,18.43,19.35,106,19.35,106l37.78,50.68S991.58,586.08,975,449.72Z"/><path class="cls-5" d="M98.45,421.57c-1.22.16-2.4.32-3.48.5C73.56,425.69,61.71,432.92,59,449.72c-16.59,136.36,62.65,229.42,62.65,229.42l26.05-34.94C121,613.17,87.62,498.32,98.45,421.57Z"/><path class="cls-5" d="M975,449.72c-2.64-16.59-14.27-23.84-35.21-27.5,6.39,68.45-26.42,190.23-53.5,222l26.06,34.95S991.58,586.08,975,449.72Z"/><path class="cls-6" d="M97.84,444.06c10.93-1.15,42.5-9.64,57-13.63a13,13,0,0,0-2.72-2.83c-12-8.29-42.34-8-57.13-5.53-18.29,3.09-29.54,8.87-34.11,20.94C72.36,444.9,90.16,444.87,97.84,444.06Z"/><path class="cls-6" d="M973.17,443c-4.57-12.07-15.82-17.85-34.11-20.94-14.79-2.49-45.15-2.76-57.13,5.53a13,13,0,0,0-2.72,2.83c14.48,4,46,12.48,57,13.63C943.87,444.87,961.67,444.9,973.17,443Z"/><polygon class="cls-3" points="158.7 701.43 136.16 804.34 156.5 804.34 199.95 701.43 158.7 701.43"/><polygon class="cls-3" points="878.69 701.43 901.23 804.34 880.89 804.34 837.43 701.43 878.69 701.43"/><path class="cls-6" d="M151.83,538.7c-7.07,6.42-12.06,9.59-14.91,21s2.85,45.58,8.54,61.73,17.1,18,33.24,18h698c16.15,0,22.79-19.94,23.74-38.94s1.34-39.49-.71-48.18-8.69-16.23-14.86-19.88-66.31-24.22-103.37-24.22H214.76C202.05,508.24,183.62,512,151.83,538.7Z"/><ellipse class="cls-5" cx="722.71" cy="528.39" rx="117.27" ry="16.66"/><path class="cls-5" d="M137.3,558.41c-.12.44-.27.81-.38,1.28-2.85,11.39,2.85,45.58,8.55,61.73s17.09,18,33.23,18h698c16.14,0,22.79-19.94,23.74-38.94.78-15.47,1.15-31.83.16-42.11Z"/><path class="cls-7" d="M662.86,283.32s-51.26,34.35-73,45.87S587,383,621.27,365.42s69-45.35,69-45.35Z"/><path class="cls-8" d="M661.53,348.41c21.06-9.31,33.88-14.19,60.74-41.84,15.83-16.3,17.21-33.58,12.38-45.14s-18.49-21.85-35.51-11.56c-15.53,9.4-31.9,21.67-72,51.28C635.63,316.38,651.38,343.11,661.53,348.41Z"/><path class="cls-9" d="M791.48,789c-5.52-9.13-5.88-18-6.89-24l-47.71-5.79s-3,15.46-4.78,24.43c-1.43,7.4-1.89,12.07,9,26,8.17,10.67,38.37,6,64,5.84,8.58,0,11.78-2.6,11.71-4.54C816.3,796.5,795.61,795.83,791.48,789Z"/><path class="cls-10" d="M684.4,144.9C664,115.54,654.76,48.39,698.12,20.06c41.37-27,102.3-17.1,124.1,26s-1.67,107.08-1.67,107.08Z"/><path class="cls-11" d="M749,534.81c-63.49,0-87.35-38.83-87.35-71.65v-1H834.4v1C834.41,514.21,832.44,534.81,749,534.81Z"/><path class="cls-12" d="M756.93,229.88c-9.69,0-30.06,3.37-37.32,7.45-24,13.49-47.39,53.39-51.26,117.7-3.4,56.71-6.69,107.14-6.69,107.14s86.52,29.87,174.58,0c-.11-16.15-2-66-4.63-103C825.55,274.26,809.46,229.88,756.93,229.88Z"/><path class="cls-13" d="M775.93,247.87,771.61,172l-43.32,2.06-6.22,74.14C734.86,254.35,762.07,254.47,775.93,247.87Z"/><path class="cls-8" d="M723.44,232.26c.26,3.19,3.47,16.89,16.43,20.11-13.69,5.64-15.67,17.57-15.67,17.57s-8.6-14.58-6.48-31C718.59,234.07,723.44,232.26,723.44,232.26Z"/><path class="cls-8" d="M775,230.59c-1,6.91-22.21,17.72-35.15,21.78,6.89,5.2,11.87,19.18,11.87,19.18s26.5-14.2,28.78-32.65C780.65,235.18,775,230.59,775,230.59Z"/><path class="cls-7" d="M681.13,159.49c6,39.48,34.19,66,73.9,62.47,36.12-3.19,61.1-53.68,62.12-99.74S793.48,39.73,749.86,40.4C683.06,41.43,668.39,76.3,681.13,159.49Z"/><path class="cls-7" d="M795.84,142.13c-4.59,11.48-4.61,20.35,2.88,23.78s23.79-.76,28.38-12.23,2.25-23.56-5.23-27S800.43,130.66,795.84,142.13Z"/><path class="cls-14" d="M735.22,140.09c-9.74-.56-17.49,2.12-18.28,9.39s9.39,10.21,17.38,10S742.79,140.53,735.22,140.09Z"/><path class="cls-15" d="M739.57,140.83c-5.68-.14-11.66.19-16.74,2.88-2.94,1.53-5.91,4.61-4.38,8,2.61,5.12,8.82,6.89,13.86,8.87-5.83-.81-12.66-2.36-15.73-8-2.21-4.38,1.45-8.94,5.32-10.66,5.49-2.62,12-2.56,17.67-1.07Z"/><path class="cls-16" d="M719.78,109.35c1,7.26,5,28.55-15.38,30.25s-15.56-23-15.56-23S710.46,110.3,719.78,109.35Z"/><path class="cls-17" d="M713,137.49a2.79,2.79,0,1,1-2-3.4A2.8,2.8,0,0,1,713,137.49Z"/><path class="cls-18" d="M715.38,108.05C692,109.68,679.13,119,694,118.86S730.82,107,715.38,108.05Z"/><path class="cls-19" d="M742.74,109.35c-1,7.26-5,28.55,15.37,30.25s15.57-23,15.57-23S752.06,110.3,742.74,109.35Z"/><path class="cls-17" d="M749.51,137.49a2.79,2.79,0,1,0,2-3.4A2.8,2.8,0,0,0,749.51,137.49Z"/><path class="cls-18" d="M747.14,108.05c23.41,1.63,36.25,10.93,21.37,10.81S731.7,107,747.14,108.05Z"/><path class="cls-20" d="M703.8,145c0,1.57-4.07,2.84-9.1,2.84s-9.11-1.27-9.11-2.84,4.08-2.85,9.11-2.85S703.8,143.46,703.8,145Z"/><path class="cls-20" d="M784.92,145c0,1.57-4.08,2.84-9.1,2.84s-9.11-1.27-9.11-2.84,4.08-2.85,9.11-2.85S784.92,143.46,784.92,145Z"/><path class="cls-21" d="M772.36,177.35a18.5,18.5,0,0,1-7.91,16c-7.45,5.33-17.52,5.16-25.89,2.39a81.12,81.12,0,0,0,10.91,0c11.09-.66,20.7-7,22.89-18.37Z"/><path class="cls-10" d="M679.14,86.44c10.76,16.24,98.76,5.35,110.93-1.64,7,28.71,24.9,41.52,24.9,54.87,6.21,1,6.46-21.77,6.46-21.77S812.88,56,792.94,45.11,744.76,24.39,718.34,36s-42.12,25.19-43.4,36C674.37,76.83,675.13,80.24,679.14,86.44Z"/><path class="cls-9" d="M810.34,549.55c4.07-19,8.68-33.33,10.91-43.92,5.08-24.05-52.8-44.25-68-9.26-5.74,13.24-13,32.87-14.12,41.92C737.89,548.81,810.34,549.55,810.34,549.55Z"/><path class="cls-11" d="M792.82,757.78l-60.1-3.95,5-211.34a36.74,36.74,0,0,1,38.67-34.72h0a36.75,36.75,0,0,1,34.73,38.67Z"/><path class="cls-9" d="M610.19,506l51.74-41s16.58-2.7,36.81,23.52S713,528,713,528l-55,29.56Z"/><path class="cls-11" d="M683,754.45l-58.64,8.13L594.29,540a36.76,36.76,0,0,1,32.89-40.25h0a36.76,36.76,0,0,1,40.25,32.89Z"/><path class="cls-9" d="M627.83,766.82c1.46,4.39-7.57,17.74-24.31,28.9-10.6,7.07-12.62,13.63-9.09,18.68,8.08,3.28,43.43,5.81,55.59,3.61,11-2,21.4-18.18,30.81-31,6.95-9.49,6.48-13.2.68-27C678,751.72,627.83,766.82,627.83,766.82Z"/><polygon class="cls-22" points="619.11 754.31 686.46 745.2 687.88 763.71 622.51 773.41 619.11 754.31"/><polygon class="cls-22" points="726.77 746.77 797.58 749.22 795.31 767.85 727.4 766.09 726.77 746.77"/><path class="cls-10" d="M670.11,69.38c-1.61-4.5-11.89-24.73-1.93-44,0,6.42,5.78,12.2,5.78,12.2S664.65,18.31,697.41,0c-9,11.24-6.75,18.63-6.75,18.63s2.57-10.28,22.49-12.21c-9,4.5-6.43,12.53-6.43,12.53"/><path class="cls-7" d="M802.78,343.85s14.5,60,17.8,84.37,49.48,21.28,44.86-17-18.69-80.44-18.69-80.44Z"/><path class="cls-8" d="M852.63,330.4c-5.88-22.26-17-48.19-26.46-65.74-10.77-20-28.06-19.83-37-15.21a28.65,28.65,0,0,0-13.51,34.78c5.67,17.25,15.86,37.85,24.19,67.12C824,351.35,845.79,339.59,852.63,330.4Z"/><path class="cls-7" d="M823.8,420.18c-16.39,18.48-38.44,43.51-52.75,60.21-10,11.7,8.77,32.73,32.19,17.88,36.66-23.25,59-55.14,61.7-73.32S842.55,399.05,823.8,420.18Z"/><path class="cls-7" d="M773.47,478.83c-10.69,7.63-16.19,6.72-25.65,14.66-3.05,3.05-8.86,18.32-10.08,23.81s3.67,2.14,6.11.62c-.92,3.66,5.5,2.44,8.24,1.83,9.78,3.36,18.63,0,25-6.11s11.61,1.83,22.9-13.74S773.47,478.83,773.47,478.83Z"/><path class="cls-10" d="M236.32,57.14c-6.29-5.78-21.44-10.25-29.68-9.3-26.82,3.1-32.33,30.78-25.59,56,16.79,62.72,15.44,111.51-11.15,123.94,47.61-4.71,64.56-49.87,50.32-107.49C214.69,97.88,209.66,66.2,228.27,76,242,83.23,236.32,57.14,236.32,57.14Z"/><path class="cls-23" d="M257.2,40.46c-15.09-.8-25,7.15-29.78,24.62s-2.78,27.8,9.92,29.79C240.52,89.7,257.2,40.46,257.2,40.46Z"/><path class="cls-24" d="M386.74,134c5.92,8.73,9.35,30.55-.94,51.44s-8.42,34-2.18,38c-12.79-5-21.83-12.16-14-30.55S386.74,134,386.74,134Z"/><path class="cls-7" d="M403.8,599.15s-49,151.69-53.33,174.47-20.18,14.07-18.36-5.27-2.61-112.44,15.07-170.48C382.9,579.11,403.8,599.15,403.8,599.15Z"/><path class="cls-25" d="M331.92,771.85c-14.3,21.71-11.76,35-7.23,37.73s33.69,5.07,33.85-2-8.07-34-8.07-34S334.17,778.07,331.92,771.85Z"/><path class="cls-25" d="M354,789.44c3.81,5.56,20.48,9.69,20.18,16.2S354.55,815,336.86,812s-2.82-19.5-2.82-19.5Z"/><path class="cls-25" d="M470.86,536c-1.32-7.63-11.71-21.5-21-27.9-20.43-14.12-47.89-37-47.89-37s-165-1.73-170.7.23c-1.19,19.86,2.94,52.49,15.8,63,15.39,12.63,37.1,22.1,41.05,35.13C294.32,589.81,470.86,536,470.86,536Z"/><path class="cls-7" d="M455.56,594.19s-52,150.69-56.76,173.38-20.45,13.67-18.25-5.63,1.3-99.62,20.12-157.3C436.75,586.59,455.56,594.19,455.56,594.19Z"/><path class="cls-23" d="M288.94,612.09s105.65,22.22,177.17-10c3.5-21.74,13.32-59.6-.35-76.43s-58.82-19.3-108.15-13.39c-35,4.2-74.19,18.55-71.55,51.6C288,587.47,288.94,612.09,288.94,612.09Z"/><path class="cls-10" d="M381.31,154c20.41-29.35,29.63-96.51-13.72-124.83-41.37-27-102.31-17.1-124.1,26s1.67,107.08,1.67,107.08Z"/><path class="cls-7" d="M275.5,247.67c-13.47,6-23.36,13.87-27.24,26.72-5.12,17-10,48.77.49,71S287,287.42,275.5,247.67Z"/><path class="cls-7" d="M359.92,314.45s18.23,43.39,34,73.68c11.36,21.83,38.71,11.48,30-15.7-11.8-36.66-35.29-83.87-40.74-93.3-9-15.53-16.44-26-39.32-29.87C337,274.53,359.92,314.45,359.92,314.45Z"/><path class="cls-7" d="M355,251.25c11.48,5.36,19.86,19.32,21.34,27.94S371,301.27,371,301.27,353,268.5,355,251.25Z"/><path class="cls-26" d="M308.77,239c19.19,0,35.14,3.54,48,12.84.36,4.09.06,12.54,5,20.31,6.34,10,21.7,20.43,26.33,34.33,5.1,15.31-17.92,35.49-16.22,57.08,4.46,56.65,32.14,107.73,32.14,107.73s-86.52,29.87-174.59,0c.12-16.15,36.19-50.25,26.29-86a333.14,333.14,0,0,1-9.7-46.41c23.25-15.38,34.85-58,26.72-90C284.28,243,297.53,239,308.77,239Z"/><path class="cls-13" d="M296.75,245.6l3.2-64.49,32.11,2.06,4.61,62.74c-3.56,8.16-13.64,19.81-13.64,19.81S304,258.91,296.75,245.6Z"/><path class="cls-7" d="M384.58,168.62c-6.05,39.47-34.19,66-73.9,62.47-36.12-3.19-61.1-53.69-62.12-99.74s23.67-82.5,67.29-81.83C382.65,50.56,397.32,85.43,384.58,168.62Z"/><path class="cls-7" d="M269.86,151.26c4.6,11.47,4.62,20.34-2.87,23.78s-23.79-.77-28.38-12.24-2.25-23.56,5.23-27S265.27,139.78,269.86,151.26Z"/><path class="cls-27" d="M337.48,154.43c5.88-.34,10.57,1.27,11,5.67s-5.68,6.16-10.5,6.05S332.91,154.69,337.48,154.43Z"/><path class="cls-15" d="M334.85,154.87a15.83,15.83,0,0,1,10.68.64c2.32,1,4.56,3.82,3.21,6.45-1.83,3.43-6,4.37-9.5,4.85,3-1.16,6.85-2.3,8.37-5.35.93-2.07-.87-3.93-2.65-4.85-3.07-1.61-6.62-1.84-10.11-1.74Z"/><path class="cls-28" d="M318,119.89c4,10.37,7.41,30-9,30.71-14.41.59-12.12-25.45-12.12-25.45S308.65,120.84,318,119.89Z"/><path class="cls-17" d="M316.2,146.61a2.79,2.79,0,1,1-2-3.4A2.79,2.79,0,0,1,316.2,146.61Z"/><path class="cls-18" d="M315,119.26c-15.41,2-24.28,7.26-14.54,6.45S325.13,117.94,315,119.26Z"/><path class="cls-29" d="M347.1,119.89c-4,10.37-7.41,30,9,30.71,14.41.59,12.13-25.45,12.13-25.45S356.43,120.84,347.1,119.89Z"/><path class="cls-17" d="M352.86,147.26a2.79,2.79,0,1,0,2-3.39A2.79,2.79,0,0,0,352.86,147.26Z"/><path class="cls-18" d="M350.1,119.26c15.41,2,24.28,7.26,14.54,6.45S340,117.94,350.1,119.26Z"/><path class="cls-20" d="M361.9,154.16c0,1.57,4.08,2.84,9.11,2.84s9.1-1.27,9.1-2.84-4.07-2.85-9.1-2.85S361.9,152.59,361.9,154.16Z"/><path class="cls-20" d="M280.79,154.16c0,1.57,4.07,2.84,9.1,2.84s9.11-1.27,9.11-2.84-4.08-2.85-9.11-2.85S280.79,152.59,280.79,154.16Z"/><path class="cls-24" d="M304.74,189.74c3.36,13,12.84,14.6,24.41,11a23.29,23.29,0,0,1-7.62,3c-9.2,2-17.08-4.74-16.79-14.06Z"/><path class="cls-25" d="M380.29,765.43c-14.72,21.43-12.45,34.82-8,37.59s33.58,5.73,33.88-1.33-7.4-34.12-7.4-34.12S382.42,771.7,380.29,765.43Z"/><path class="cls-25" d="M402,783.45c3.7,5.64,20.29,10.1,19.85,16.61s-19.82,9-37.45,5.65S382,786.16,382,786.16Z"/><path class="cls-10" d="M262.91,64.48c4.73,28.4,21.3,43.19,73.66,47-27.81-6.21-46.15-37-46.15-37s23.67,35.5,68,36.09c-20.11-3.84-42.89-32.83-42.89-32.83s48.51,21.89,56.5,34.9c-1.48-12.42-17.75-36.09-17.75-36.09s26,28.7,29.29,53.84c5.62-10.35,11.05-70.24-26.92-81.35C301.07,32.83,262.91,64.48,262.91,64.48Z"/><path class="cls-10" d="M256.11,86.38c-11,22.63-21.6,50-9.47,67.15s12.43,43.19-1.18,56.79c28.4-10.94,29.88-29.28,21.89-55.31s26.62-41.42,13-65.68S269.12,59.46,256.11,86.38Z"/><path class="cls-7" d="M263.23,319s-14,64-24,96.62c-7.21,23.53-36,18.32-32.32-10,4.94-38.19,23.44-106.87,27.08-117.14,6-16.89,11.45-28.52,33.25-36.51C278.49,275.55,263.23,319,263.23,319Z"/><path class="cls-7" d="M245.34,414.69a334.41,334.41,0,0,0,63,65.34c12.9,10.3.65,27.38-15.26,17.22-45.89-29.3-78.86-57.66-84.49-76.51S229.09,392.66,245.34,414.69Z"/><path class="cls-7" d="M305.22,477.83c8.57,4.9,20,7.53,28.79,10.43,2.85,2.13,10.12,12,11.77,16.3s-2.74,2.18-4.91,1.22c1.18,2.88-4.19,2.64-6.5,2.47-7.57,3.88-9.75,4.21-14.38-1.43-6.75-8.25-17.36-2.62-27.05-9.11C279.78,488.9,294.67,471.8,305.22,477.83Z"/><path class="cls-7" d="M422,366.34c41.8,31.55,80.57,31.17,83.23,50.17,1.43,10.24-6.84,15.59-16,16-28.87,1.2-79.43-25.09-89.32-37.25S413.13,359.68,422,366.34Z"/><path class="cls-30" d="M481.92,520.28s17.73,8.91,52.34,8.91,48.85-9.69,48.85-9.69-23.29-74.59-27.14-83c-4.1-8.94-7.23-13-23.44-13h0c-15.88,0-19.76,2.94-24.75,13.7C500.43,453.08,481.92,520.28,481.92,520.28Z"/><path class="cls-31" d="M512.89,432.51s-23,5.68-36.86,5.32c6,11.7,34.38,5.67,34.38,5.67Z"/><path class="cls-32" d="M545.23,431.62c0,5.12-13.53,14.41-13.53,14.41s-13.52-9.29-13.52-14.41,6.05-9.28,13.52-9.28S545.23,426.5,545.23,431.62Z"/><path class="cls-33" d="M542.15,431.62c0,3.62-10.45,10.82-10.45,10.82s-10.44-7.2-10.44-10.82,4.68-6.55,10.44-6.55S542.15,428,542.15,431.62Z"/><path class="cls-10" d="M684.56,275.72c-18.83-17.18-38.77-26.36-56.81-24.74s-32.16,27.11-36.54,36.37a9.08,9.08,0,0,0,8,9.11c12.32-15.22,23.45-17.7,35.94-4.79,9.5,9.83,11.12,22.93,11.12,22.93a28.93,28.93,0,0,0,15.74-8L652,293.73,663.76,305s4.11-1.37,7.53-7.87c-5.82-7.7-25.84-23.1-25.84-23.1l29.09,20.53s4.07-2.09,7.15-10c-3.58-5.55-14.45-13.08-14.45-13.08L684,281.75A22.91,22.91,0,0,1,684.56,275.72Z"/><path class="cls-34" d="M603.77,297.39c-1.95,1.54-6.58-1.05-10.32-5.79s-5.19-9.84-3.24-11.39,6.58,1.05,10.32,5.79S605.73,295.84,603.77,297.39Z"/><path class="cls-10" d="M370.53,275.72c18.84-17.18,38.78-26.36,56.81-24.74s32.17,27.11,36.55,36.37a9.1,9.1,0,0,1-8.05,9.11c-12.32-15.22-23.45-17.7-35.93-4.79-9.5,9.83-11.12,22.93-11.12,22.93a28.88,28.88,0,0,1-15.74-8l10.09-12.83L391.34,305s-4.11-1.37-7.53-7.87c5.82-7.7,25.84-23.1,25.84-23.1l-29.09,20.53s-4.07-2.09-7.15-10c3.57-5.55,14.45-13.08,14.45-13.08l-16.71,10.21A22.65,22.65,0,0,0,370.53,275.72Z"/><path class="cls-34" d="M451.32,297.39c2,1.54,6.58-1.05,10.33-5.79s5.19-9.84,3.24-11.39-6.58,1.05-10.33,5.79S449.37,295.84,451.32,297.39Z"/><path class="cls-10" d="M493.74,416.13c-16.65-2-67.51-38.87-51.66-96.18,14.67-53,69.48-59.27,86.66-59.27s58.28,6,76.76,41.41c18.83,36.1,16,85.15-27.14,105.54S493.74,416.13,493.74,416.13Z"/><ellipse class="cls-31" cx="532.76" cy="364.89" rx="69" ry="69.02"/><path class="cls-35" d="M530.22,388c1.76-1.88,4.79-3.62,7.4-2.39a3.57,3.57,0,0,1,2,3.22c0,2.42-1.7,4.49-3.56,5.72,4.8-6.78,1.34-10.2-5.86-6.55Z"/><path class="cls-10" d="M458.54,351.31c.8,12.69,7.14,18.64,7.14,18.64s-3.57-18.24,19-28.55,42.44-10.31,46.4-32.53c4.37,18.65,20.63,29,40.06,33.32s25.78,18.24,27,27.76c11.9-15.46,6.74-34.11,5.16-48s-26.58-44-72.58-41.24S457.35,310.46,458.54,351.31Z"/><path class="cls-10" d="M513.6,354.21c.22,1.41-4.16,3.24-9.77,4.1s-10.33.42-10.54-1,4.16-3.24,9.77-4.1S513.39,352.81,513.6,354.21Z"/><path class="cls-10" d="M550.93,354.21c-.22,1.41,4.15,3.24,9.76,4.1s10.33.42,10.55-1-4.16-3.24-9.77-4.1S551.14,352.81,550.93,354.21Z"/><ellipse class="cls-35" cx="518.43" cy="379.77" rx="2.79" ry="4.73"/><path class="cls-35" d="M547.86,379.77c0,2.61-1.25,4.72-2.79,4.72s-2.79-2.11-2.79-4.72,1.25-4.73,2.79-4.73S547.86,377.16,547.86,379.77Z"/><path class="cls-36" d="M562.38,389.18c0,1.25-3.14,2.27-7,2.27s-7-1-7-2.27,3.14-2.26,7-2.26S562.38,387.93,562.38,389.18Z"/><path class="cls-36" d="M514.84,389.18c0,1.25-3.13,2.27-7,2.27s-7-1-7-2.27,3.14-2.26,7-2.26S514.84,387.93,514.84,389.18Z"/><path class="cls-37" d="M512.83,406c6.42.08,28.42-1.56,38.13-7.45-.61,20.62-7.21,26-17.25,27.46C522.62,427.67,513.61,416.06,512.83,406Z"/><path class="cls-38" d="M535.1,420.75c-1.66-.65-7.46.12-10.17,3.81a14.58,14.58,0,0,0,8.78,1.46c4.67-.69,8.6-2.22,11.52-5.74A8.81,8.81,0,0,0,535.1,420.75Z"/><path class="cls-31" d="M608.62,381.77c-4.92,6.06-11.55,8.82-14.81,6.17s-1.9-9.7,3-15.75,11.55-8.82,14.8-6.17S613.54,375.72,608.62,381.77Z"/><path class="cls-33" d="M599.47,384.42c.19-3.06,3.76-12.41,7.66-14.05S610,377.81,599.47,384.42Z"/><path class="cls-31" d="M457,381.77c4.93,6.06,11.55,8.82,14.81,6.17s1.91-9.7-3-15.75-11.55-8.82-14.81-6.17S452,375.72,457,381.77Z"/><path class="cls-33" d="M466.1,384.42c-.18-3.06-3.76-12.41-7.66-14.05S455.57,377.81,466.1,384.42Z"/><path class="cls-39" d="M556.68,476.74a9.25,9.25,0,0,0-4.71-8.06,9.24,9.24,0,0,0-11.4-11.39,9.24,9.24,0,0,0-16.11,0,9.24,9.24,0,0,0-11.4,11.39,9.25,9.25,0,0,0,0,16.12,9.25,9.25,0,0,0,11.4,11.4,9.24,9.24,0,0,0,16.11,0A9.25,9.25,0,0,0,552,484.8,9.25,9.25,0,0,0,556.68,476.74Z"/><path class="cls-40" d="M539.1,476.35a6.59,6.59,0,1,1-6.58-6.58A6.58,6.58,0,0,1,539.1,476.35Z"/><path class="cls-41" d="M443.11,421.77a28.37,28.37,0,0,0,5.16-2.63c9,3.29,25,4.48,41.29,5.44,25.37,1.47,38.76,4.05,40.89,11v9.88Z"/><path class="cls-41" d="M617.77,421.77a28.37,28.37,0,0,1-5.16-2.63c-9,3.29-25,4.48-41.29,5.44-25.37,1.47-38.76,4.05-40.89,11v9.88Z"/><polygon class="cls-42" points="524.88 547.94 465.24 537.68 439.89 422.25 441.48 420.66 524.88 440.48 524.88 547.94"/><polygon class="cls-42" points="536.88 547.94 596.14 537.26 621.82 422.26 619.66 420.83 536.88 440.48 536.88 547.94"/><path class="cls-42" d="M524.88,547.94c3.92,3,7.93,2.94,12,0V440.48c-4,2.77-8,3.08-12,0Z"/><polygon class="cls-43" points="524.88 549.88 465.62 539.2 439.94 422.26 524.88 442.42 524.88 549.88"/><polygon class="cls-43" points="536.88 549.88 596.14 539.2 621.82 422.26 536.88 442.42 536.88 549.88"/><path class="cls-44" d="M524.88,549.88c3.92,3,7.93,2.94,12,0V442.42c-4,2.77-8,3.08-12,0Z"/><path class="cls-25" d="M499.29,537.48c5.25,5.65,6.26,13.86-1.37,19.31-4,2.87-7.71-2.13-12.54-8.14s-8.78-10.56-4.94-13.64S492.5,530.18,499.29,537.48Z"/><path class="cls-30" d="M496.14,540.32c4.83,6,5.62,13.39,1.78,16.47s-10.86.71-15.69-5.3-5.63-13.4-1.79-16.48S491.31,534.31,496.14,540.32Z"/><path class="cls-25" d="M564.57,537.48c-5.25,5.65-6.26,13.86,1.37,19.31,4,2.87,7.71-2.13,12.54-8.14s8.78-10.56,4.94-13.64S571.36,530.18,564.57,537.48Z"/><path class="cls-30" d="M567.72,540.32c-4.82,6-5.62,13.39-1.78,16.47s10.87.71,15.69-5.3,5.63-13.4,1.79-16.48S572.55,534.31,567.72,540.32Z"/><path class="cls-31" d="M444.93,445.07c-6.33,3.57-7.82,24.25,8.21,21.92,8.91-1.3,6.84-17.91-6.86-15.48C445.89,449.49,444.93,445.07,444.93,445.07Z"/><path id="Group_1" data-name="Group 1" class="cls-45" d="M104.31,722.15c-.2,0-.49-37.16-.64-83s0-83,.19-83,.49,37.16.64,83,0,83-.19,83Z"/><path id="Group_1-2" data-name="Group 1" class="cls-45" d="M129.47,629.16a3.3,3.3,0,0,1-.31.87c-.26.62-.6,1.41-1,2.4-.24.52-.46,1.11-.73,1.73l-.77,2.11c-.28.75-.57,1.56-.89,2.43s-.53,1.8-.82,2.75a113.44,113.44,0,0,0-3.16,13.81,166.13,166.13,0,0,0-1.76,17.3,230.5,230.5,0,0,0,.9,31.59c.36,4,.71,7.27,1,9.53.11,1.06.22,1.93.29,2.61a2.94,2.94,0,0,1,0,.92,6.09,6.09,0,0,1-.22-.9c-.11-.68-.24-1.53-.42-2.58-.37-2.25-.83-5.49-1.25-9.53a209.45,209.45,0,0,1-1.14-31.68A156.94,156.94,0,0,1,121,655.15a105.23,105.23,0,0,1,3.34-13.88c.31-1,.57-1.89.9-2.76s.64-1.65.94-2.42.56-1.43.8-2.08.57-1.19.81-1.72c.48-1,.85-1.73,1.16-2.34a7.29,7.29,0,0,1,.49-.79Z"/><path id="Group_1-3" data-name="Group 1" class="cls-45" d="M126.59,599.12a7.19,7.19,0,0,1-.35,1.23c-.29.86-.68,2-1.17,3.45-.26.77-.55,1.58-.87,2.5s-.57,2-.91,3c-.67,2.15-1.42,4.59-2.1,7.35-.38,1.36-.75,2.81-1.14,4.3s-.68,3.08-1,4.7c-.79,3.23-1.38,6.76-2.1,10.41-1.25,7.38-2.35,15.54-3.1,24.15s-1,16.84-1.14,24.33.07,14.22.37,19.89c.11,2.83.27,5.38.44,7.62s.27,4.19.4,5.77.22,2.74.28,3.62a5.9,5.9,0,0,1,0,1.28,11.25,11.25,0,0,1-.18-1.25c-.11-.9-.26-2.11-.44-3.63s-.37-3.51-.55-5.77-.4-4.79-.53-7.62c-.41-5.67-.54-12.41-.55-19.94s.34-15.74,1.06-24.37,1.87-16.81,3.18-24.21c.73-3.67,1.34-7.2,2.15-10.45.4-1.61.75-3.18,1.12-4.7s.8-2.92,1.19-4.3c.72-2.75,1.52-5.18,2.22-7.31.35-1.08.68-2.07,1-3s.64-1.71.93-2.48c.55-1.43,1-2.55,1.34-3.41a4.27,4.27,0,0,1,.48-1.18Z"/><path id="Group_1-4" data-name="Group 1" class="cls-45" d="M97.17,728.72a1.24,1.24,0,0,1,0-.44c0-.33-.06-.75-.1-1.27-.07-1.17-.2-2.83-.33-4.9-.27-4.33-.66-10.51-1.14-18.11-1-15.28-2.4-36.38-5-59.59-1.31-11.61-2.83-22.63-4.41-32.62-.84-5-1.6-9.73-2.48-14.16s-1.67-8.52-2.44-12.27-1.56-7.12-2.24-10.08-1.29-5.49-1.82-7.56-.9-3.64-1.18-4.78c-.11-.51-.22-.92-.29-1.25s-.07-.44-.07-.44a2.68,2.68,0,0,1,.14.42c.11.32.22.72.39,1.23q.46,1.71,1.32,4.74c.57,2.06,1.25,4.59,2,7.55s1.58,6.34,2.37,10.08,1.71,7.84,2.53,12.27S86,606.7,86.9,611.7c1.62,10,3.18,21,4.5,32.65C94,667.58,95.3,688.72,96.14,704c.41,7.66.7,13.85.88,18.13.08,2.07.13,3.74.17,4.9,0,.53,0,1,0,1.3a1.77,1.77,0,0,1,0,.39Z"/><path id="Group_7" data-name="Group 7" class="cls-46" d="M63.93,531.9l-7.44,13.48c-.16.32-.4.67-.75.7s-.68-.33-.9-.66L35.15,515.21l4.54-2.57Z"/><path id="Group_5" data-name="Group 5" class="cls-47" d="M103.85,556.18q-33.57-19.83-67.16-39.63a3.24,3.24,0,0,1-1.63-1.63c-.28-1,.48-1.95,1.19-2.7,9.24-9.52,22.65-15,35.89-14.09s26,8.58,32.43,20.18,6.72,26.87-.72,37.87"/><path id="Group_4" data-name="Group 4" class="cls-45" d="M46.39,503.94a2.66,2.66,0,0,1,.86-.13c.59,0,1.44-.13,2.56-.11a50.61,50.61,0,0,1,9.31.73,54.43,54.43,0,0,1,43.47,39.32,49.16,49.16,0,0,1,1.65,9.18c.11,1.1.09,2,.15,2.56s0,.86,0,.86-.15-1.2-.42-3.38a58.2,58.2,0,0,0-1.89-9.09,56.26,56.26,0,0,0-15.94-25.6A56.19,56.19,0,0,0,59,505a59.8,59.8,0,0,0-9.2-1,33.66,33.66,0,0,1-3.42,0Z"/><path id="Group_3" data-name="Group 3" class="cls-45" d="M94.76,528.86a17.76,17.76,0,0,1-3.39,1.54c-2.15.83-5.15,1.91-8.49,3s-6.39,1.93-8.65,2.46a17.1,17.1,0,0,1-3.65.72,16.47,16.47,0,0,1,3.51-1.25c2.47-.79,5.36-1.69,8.54-2.68l8.53-2.75c2.19-.72,3.55-1.14,3.6-1Z"/><path id="Group_2" data-name="Group 2" class="cls-45" d="M84.19,500.45c.22,0,.69,3.34.8,7.49s-.2,7.55-.4,7.53-.28-3.36-.4-7.5-.22-7.51,0-7.52Z"/><path id="Group_1-5" data-name="Group 1" class="cls-45" d="M36.13,515.82A26.67,26.67,0,0,1,41,514.09c3-.94,7.31-2.13,12-3.27s9.06-2,12.2-2.59a37,37,0,0,1,5.12-.7,30.94,30.94,0,0,1-5,1.25c-3.11.7-7.41,1.67-12.13,2.79s-9,2.25-12.06,3.05a33.82,33.82,0,0,1-5,1.2Z"/><path id="Group_6" data-name="Group 6" class="cls-47" d="M103.4,574c-.48-5.27-5.81-9.22-11.08-9.27s-10.21,3.12-13.46,7.29-5,9.29-6.48,14.36c-3.55,12.4-5.49,25.44-4,38.26s6.7,25.39,15.9,34.47c1.51,1.45,3.44,2.93,5.5,2.49a6.62,6.62,0,0,0,2.88-1.8,85.61,85.61,0,0,0,27.77-65.08c-.13-4.89-.77-9.94-3.47-14s-9-8.34-13.59-6.73"/><path id="Group_5-2" data-name="Group 5" class="cls-45" d="M87.18,662.75a4.33,4.33,0,0,1-.09-.91c0-.68-.08-1.57-.13-2.63-.09-2.28-.11-5.6,0-9.72s.35-9,.83-14.39,1.28-11.32,2.37-17.49,2.42-12,3.82-17.24,2.84-9.92,4.19-13.77,2.49-7,3.39-9.1c.43-1,.77-1.8,1-2.44a2.82,2.82,0,0,1,.41-.82,5,5,0,0,1-.26.88c-.24.64-.53,1.48-.88,2.48-.79,2.14-1.88,5.27-3.14,9.16s-2.63,8.58-4,13.81S92,611.63,90.91,617.74s-1.86,12-2.43,17.41-.84,10.25-1,14.34-.22,7.39-.22,9.68c0,1.07,0,2,0,2.63a3.09,3.09,0,0,1,0,1Z"/><path id="Group_4-2" data-name="Group 4" class="cls-45" d="M90.74,617a17.29,17.29,0,0,1-2.68,2.94c-1.74,1.75-4.2,4.06-7,6.52s-5.44,4.61-7.39,6.12a16.52,16.52,0,0,1-3.27,2.25,20.49,20.49,0,0,1,2.91-2.71l7.23-6.27,7.16-6.33a19.09,19.09,0,0,1,3-2.52Z"/><path id="Group_3-2" data-name="Group 3" class="cls-45" d="M112,634.07a32.74,32.74,0,0,1-2.85-4c-1.83-2.66-4.11-6-6.64-9.68s-4.89-6.92-6.76-9.59a31.6,31.6,0,0,1-2.72-4,31.23,31.23,0,0,1,3.16,3.71c1.85,2.37,4.35,5.7,7,9.48s4.86,7.25,6.44,9.83a31.24,31.24,0,0,1,2.37,4.24Z"/><path id="Group_2-2" data-name="Group 2" class="cls-45" d="M100.84,580.22c.13.2-6.94,4.94-15.77,10.64S69,601,68.87,600.79s6.92-4.94,15.78-10.63,16.08-10.12,16.19-9.94Z"/><path id="Group_1-6" data-name="Group 1" class="cls-45" d="M120.75,601.73c-.15.14-4.94-4.26-10.67-9.86S99.81,581.58,100,581.42s4.94,4.26,10.69,9.88,10.27,10.24,10.1,10.43Z"/><path id="Group_6-2" data-name="Group 6" class="cls-47" d="M125.75,601.29l6.06-.5A30.22,30.22,0,0,0,144,597a48.44,48.44,0,0,1,5.71-2.88c7.49-3,15.85-2.48,23.91-2.86a99.15,99.15,0,0,0,38-9.72,3.74,3.74,0,0,0,1.67-1.5c1.25-2.26-1.08-4.3-3.06-5.51-10.21-6.28-20.61-12.68-32.2-15.8s-24.71-2.59-34.6,4.21c-11.56,8-15.77,24.35-17.75,38.31"/><path id="Group_5-3" data-name="Group 5" class="cls-45" d="M213.51,579.3a4.61,4.61,0,0,1-1-.47c-.71-.39-1.69-.89-2.86-1.51-2.5-1.3-6.08-3.23-10.63-5.42a99.32,99.32,0,0,0-16.42-6.33,53.58,53.58,0,0,0-21.27-1.71c-7.53,1-14.49,3.91-19.41,8.32a43.84,43.84,0,0,0-10.1,14.19c-2.13,4.56-3.44,8.42-4.39,11.06-.46,1.27-.81,2.28-1.08,3.07a5.4,5.4,0,0,1-.43,1,5.54,5.54,0,0,1,.28-1.08c.22-.79.53-1.82.94-3.1a92.13,92.13,0,0,1,4.16-11.19,43.23,43.23,0,0,1,10.14-14.51c5-4.55,12.12-7.58,19.8-8.57a53.92,53.92,0,0,1,21.58,1.82,95.85,95.85,0,0,1,16.47,6.53c4.52,2.24,8.06,4.26,10.51,5.66,1.15.7,2.09,1.23,2.79,1.65a5.62,5.62,0,0,1,.95.55Z"/><path id="Group_4-3" data-name="Group 4" class="cls-45" d="M199,587.15c-.11.16-8.05-4.94-17.71-11.46S163.89,563.75,164,563.57s8,4.94,17.7,11.46S199.1,586.94,199,587.15Z"/><path id="Group_3-3" data-name="Group 3" class="cls-45" d="M108.75,526.43c0,.22-2.72.91-6.19,1.25s-6.3.12-6.3-.1,2.81-.38,6.23-.69,6.2-.68,6.26-.46Z"/><path id="Group_2-3" data-name="Group 2" class="cls-45" d="M155.81,556.44c.2.11-1,2.44-2.59,5.18s-3.1,4.9-3.31,4.79,1-2.44,2.61-5.19,3.11-4.89,3.29-4.78Z"/><path id="Group_1-7" data-name="Group 1" class="cls-45" d="M162.92,591.81a22.27,22.27,0,0,1-3.81-2.07c-2.27-1.38-5.38-3.44-8.68-5.83s-6.23-4.66-8.32-6.31a25.43,25.43,0,0,1-3.31-2.83,20.43,20.43,0,0,1,3.64,2.35c2.39,1.74,5.25,3.84,8.45,6.13s6.33,4.5,8.54,6a26.6,26.6,0,0,1,3.49,2.57Z"/><path id="Group_6-3" data-name="Group 6" class="cls-47" d="M134.69,627c-5.77-1.52-12.67,4.1-13.85,10s1,11.84,3.57,17.26c5.69,11.94,13.55,23,23.91,31.28S171.62,699,184.86,699c-2.44-11.35.65-23.21-.71-34.75a45.29,45.29,0,0,0-40-39.63c-3.69-.38-8-1-9.44,2.44"/><path id="Group_5-4" data-name="Group 5" class="cls-45" d="M184.86,699a4.06,4.06,0,0,1-.82-.39,17.09,17.09,0,0,1-2.17-1.45,22.39,22.39,0,0,1-5.69-7.64c-.92-1.78-2-3.72-3-5.86s-2-4.46-3.1-6.88a68.71,68.71,0,0,0-3.82-7.33,58.66,58.66,0,0,0-5.26-7.14c-4-4.65-8.19-8.67-11.88-12.53a79.61,79.61,0,0,1-9-10.87,39.66,39.66,0,0,1-4.45-8.45c-.36-1.06-.64-1.89-.77-2.48a3.28,3.28,0,0,1-.18-.88c.07,0,.42,1.18,1.25,3.27a43.29,43.29,0,0,0,4.61,8.25,85.76,85.76,0,0,0,9.11,10.68c3.69,3.81,8,7.81,12,12.51a58.54,58.54,0,0,1,5.31,7.27,64.28,64.28,0,0,1,3.82,7.46c1.08,2.41,2.09,4.74,3.05,6.9s2,4.1,2.84,5.9a23.26,23.26,0,0,0,5.42,7.66c1.69,1.38,2.83,1.93,2.79,2Z"/><path id="Group_4-4" data-name="Group 4" class="cls-45" d="M155,689.55a18.76,18.76,0,0,1,.53-3.89c.46-2.39,1.19-5.64,2.2-9.22s2.08-6.73,2.94-9a17.27,17.27,0,0,1,1.58-3.58,21.34,21.34,0,0,1-1,3.78c-.71,2.29-1.69,5.49-2.68,9s-1.82,6.78-2.42,9.13a20.09,20.09,0,0,1-1.1,3.75Z"/><path id="Group_3-4" data-name="Group 3" class="cls-45" d="M183.76,661.67a24.52,24.52,0,0,1-4.08-.94c-2.49-.64-5.93-1.54-9.75-2.4s-7.33-1.53-9.84-2a26.82,26.82,0,0,1-4.08-.9,19.39,19.39,0,0,1,4.17.33c2.57.33,6.1.92,9.94,1.8s7.29,1.85,9.75,2.62a20.25,20.25,0,0,1,3.89,1.49Z"/><path id="Group_2-4" data-name="Group 2" class="cls-45" d="M133.5,669.77a24.81,24.81,0,0,1,.62-4.52c.51-2.73,1.32-6.55,2.41-10.69s2.22-7.84,3.14-10.5a21.85,21.85,0,0,1,1.67-4.24,30,30,0,0,1-1.12,4.42c-.76,2.68-1.82,6.39-2.9,10.54s-2,7.88-2.63,10.62a24.76,24.76,0,0,1-1.19,4.37Z"/><path id="Group_1-8" data-name="Group 1" class="cls-45" d="M170.5,637.39c0,.2-7.25-.38-16.12-1.32s-16.07-1.87-16-2.09,7.24.36,16.13,1.3,16.05,1.89,16,2.11Z"/><polygon id="Group_8" data-name="Group 8" class="cls-45" points="62.57 719.79 78.81 800.01 138.97 800.01 154.69 724.97 62.57 719.79"/><polygon id="Group_7-2" data-name="Group 7" class="cls-48" points="62.57 792.41 71.24 804.35 144.33 804.35 154.69 792.41 62.57 792.41"/><path id="Group_6-4" data-name="Group 6" class="cls-49" d="M165.21,724.9c0,.2-25.38.4-56.65.4s-56.66-.18-56.66-.4,25.36-.42,56.66-.42,56.65.2,56.65.42Z"/><path id="Group_5-5" data-name="Group 5" class="cls-49" d="M147.56,757.55c0,.21-17.09.41-38.16.41s-38.18-.17-38.18-.41,17.08-.42,38.18-.42,38.16.18,38.16.42Z"/><path id="Group_4-5" data-name="Group 4" class="cls-49" d="M148.22,762.22c0,.2-17.09.4-38.16.4s-38.18-.16-38.18-.4,17.08-.42,38.18-.42,38.16.2,38.16.42Z"/><path id="Group_3-5" data-name="Group 3" class="cls-49" d="M148.22,753.7c0,.22-17.68.42-39.48.42s-39.5-.18-39.5-.42,17.66-.41,39.5-.41,39.48.19,39.48.41Z"/><rect id="Group_2-5" data-name="Group 2" class="cls-48" x="52.08" y="709.46" width="112.93" height="15.52"/><rect id="Group_1-9" data-name="Group 1" class="cls-48" x="52.3" y="709.64" width="112.54" height="15.13"/><path id="Group_5-6" data-name="Group 5" class="cls-47" d="M75.57,562.73c-5.78-4.37-11.88-5.23-19.13-5s-14.29,2.49-20.92,5.41c-11.32,5-22,12.25-28.74,22.61s-9.11,24-4.06,35.3A5,5,0,0,0,5,623.89a5.33,5.33,0,0,0,3.79-.3c12.87-4.18,25.84-8.42,37.68-15s22.63-15.72,29-27.67a23.56,23.56,0,0,0,3-9.21,11.38,11.38,0,0,0-2.92-9"/><path id="Group_4-6" data-name="Group 4" class="cls-45" d="M75.68,561.39a6,6,0,0,1-.92.37l-2.68.94-1.94.64c-.72.26-1.47.57-2.3.9-1.62.66-3.51,1.3-5.51,2.3L59.17,568c-1.08.51-2.18,1.14-3.34,1.72-2.33,1.14-4.7,2.61-7.2,4.1a124,124,0,0,0-15.24,11.29,129.08,129.08,0,0,0-13.15,13.69c-1.8,2.31-3.56,4.48-5,6.64-.75,1.07-1.49,2.06-2.13,3.11s-1.25,2-1.84,2.94c-1.21,1.85-2.11,3.65-3,5.17-.4.78-.81,1.49-1.16,2.15s-.62,1.29-.9,1.86c-.53,1-.93,1.89-1.26,2.55a5.47,5.47,0,0,1-.5.88,4.38,4.38,0,0,1,.35-.93c.29-.68.66-1.55,1.14-2.65l.84-1.89c.33-.68.72-1.4,1.1-2.19.83-1.56,1.71-3.37,2.87-5.25l1.8-3c.62-1.05,1.39-2.06,2.11-3.14,1.43-2.21,3.16-4.41,5-6.73A121.05,121.05,0,0,1,32.85,584.5a123.84,123.84,0,0,1,15.39-11.34c2.54-1.48,4.94-2.93,7.31-4,1.16-.59,2.28-1.2,3.36-1.69s2.17-1,3.22-1.4c2-.94,3.91-1.56,5.58-2.18.83-.3,1.6-.61,2.32-.83s1.39-.4,2-.59c1.12-.33,2-.59,2.73-.77a2.64,2.64,0,0,1,.92-.26Z"/><path id="Group_3-6" data-name="Group 3" class="cls-45" d="M30.58,585.82c.05.2-6.23,2.24-14,4.52s-14.22,4-14.27,3.74,6.22-2.24,14.05-4.51,14.19-4,14.27-3.75Z"/><path id="Group_2-6" data-name="Group 2" class="cls-45" d="M30,616.82a22.23,22.23,0,0,1-.31-4.39c-.08-2.7-.08-6.43,0-10.58s.33-7.86.57-10.56a24.51,24.51,0,0,1,.55-4.35,25.84,25.84,0,0,1,0,4.39c-.09,3-.2,6.57-.33,10.56s-.2,7.6-.27,10.58a21.26,21.26,0,0,1-.24,4.35Z"/><path id="Group_1-10" data-name="Group 1" class="cls-45" d="M23.49,568.54a23.29,23.29,0,0,1,4.52-.13c2.77,0,6.61.09,10.83.22s8.06.31,10.84.48a23.33,23.33,0,0,1,4.48.42,22.7,22.7,0,0,1-4.48.15c-2.78,0-6.63-.11-10.86-.24S30.76,569.12,28,569a24.48,24.48,0,0,1-4.5-.42Z"/><path id="Group_1-11" data-name="Group 1" class="cls-45" d="M56.59,604c-.22,0-.94-7.6-1.58-17s-1-17-.79-17.05.94,7.61,1.58,17,1,17,.79,17Z"/></g></g></svg>